# Blender v3.4.1 OBJ File: 'Adventurers_2.0_Accessories_Export.blend'
# www.blender.org
mtllib ammo_crate_withLid_ammo_crate_lid.mtl
o ammo_crate_lid
v -0.287500 0.333168 0.212622
v -0.237814 0.333168 0.230000
v -0.237814 0.333168 -0.229999
v -0.287500 0.333168 -0.212621
v 0.237813 0.333168 0.230000
v 0.287500 0.333168 0.212622
v 0.287500 0.333168 -0.212622
v 0.237813 0.333168 -0.230000
v -0.287500 0.433678 0.140572
v -0.237814 0.460001 0.143014
v -0.287500 0.433678 -0.140572
v -0.237814 0.460001 -0.143014
v 0.287500 0.433678 -0.140572
v 0.237813 0.460001 -0.143014
v 0.287500 0.433678 0.140572
v 0.237813 0.460001 0.143014
v 0.287500 0.279288 0.212675
v 0.237813 0.279288 0.230000
v 0.237813 0.252984 0.206798
v 0.261452 0.252984 0.189489
v 0.237813 0.279288 -0.230000
v 0.287500 0.279288 -0.212675
v 0.261452 0.252984 -0.189489
v 0.237813 0.252984 -0.206798
v -0.287500 0.279288 -0.212674
v -0.237814 0.279288 -0.229999
v -0.237814 0.252984 -0.206797
v -0.261452 0.252984 -0.189489
v -0.237814 0.279288 0.230000
v -0.287500 0.279288 0.212675
v -0.261452 0.252984 0.189489
v -0.237814 0.252984 0.206798
v 0.227738 0.252984 0.154167
v 0.227738 0.252984 -0.154166
v -0.227744 0.252984 -0.154166
v -0.227744 0.252984 0.154167
v 0.227738 0.423254 0.154167
v 0.227738 0.423254 -0.154166
v -0.227744 0.423254 -0.154166
v -0.227744 0.423254 0.154167
v 0.107959 0.192513 0.260094
v 0.107938 0.178368 0.254000
v 0.095417 0.181184 0.251325
v 0.092300 0.192494 0.254000
v 0.107959 0.301691 0.260094
v 0.107938 0.315836 0.254000
v 0.095417 0.313020 0.251324
v 0.092300 0.301710 0.254000
v 0.095737 0.181473 0.212101
v 0.095737 0.312731 0.212101
v 0.164283 0.192513 0.260094
v 0.176825 0.181184 0.251324
v 0.179943 0.192494 0.254000
v 0.164305 0.178368 0.254000
v 0.164283 0.301691 0.260094
v 0.164305 0.315836 0.254000
v 0.176825 0.313020 0.251324
v 0.179943 0.301710 0.254000
v 0.176506 0.181473 0.212101
v 0.176506 0.312731 0.212101
v -0.164296 0.192513 0.260094
v -0.164317 0.178368 0.254000
v -0.176838 0.181184 0.251325
v -0.179955 0.192494 0.254000
v -0.164296 0.301691 0.260094
v -0.164317 0.315836 0.254000
v -0.176838 0.313020 0.251324
v -0.179955 0.301710 0.254000
v -0.176518 0.181473 0.212101
v -0.176518 0.312731 0.212101
v -0.107971 0.192513 0.260094
v -0.095429 0.181184 0.251324
v -0.092312 0.192494 0.254000
v -0.107950 0.178368 0.254000
v -0.107971 0.301691 0.260094
v -0.107950 0.315836 0.254000
v -0.095429 0.313020 0.251324
v -0.092312 0.301710 0.254000
v -0.095749 0.181473 0.212101
v -0.095749 0.312731 0.212101
vt 0.223023 0.379420
vt 0.223023 0.394629
vt 0.223023 0.394629
vt 0.223023 0.379420
vt 0.220608 0.394629
vt 0.155282 0.394629
vt 0.155276 0.424327
vt 0.220614 0.424327
vt 0.223023 0.420776
vt 0.223023 0.420776
vt 0.155282 0.394629
vt 0.220608 0.394629
vt 0.220614 0.424327
vt 0.155276 0.424327
vt 0.152868 0.379420
vt 0.152868 0.394629
vt 0.152868 0.394629
vt 0.152868 0.379420
vt 0.155276 0.474566
vt 0.220614 0.474566
vt 0.220614 0.474566
vt 0.155276 0.474566
vt 0.152868 0.329181
vt 0.152868 0.329181
vt 0.154583 0.325613
vt 0.154583 0.325613
vt 0.155294 0.379420
vt 0.220596 0.379420
vt 0.220596 0.379420
vt 0.155294 0.379420
vt 0.155294 0.329181
vt 0.220596 0.329181
vt 0.218929 0.325613
vt 0.156961 0.325613
vt 0.220596 0.329181
vt 0.155294 0.329181
vt 0.156961 0.325613
vt 0.218929 0.325613
vt 0.223023 0.329181
vt 0.223023 0.329181
vt 0.221308 0.325613
vt 0.221308 0.325613
vt 0.152868 0.420776
vt 0.152868 0.420776
vt 0.223023 0.471014
vt 0.223023 0.471014
vt 0.152868 0.471014
vt 0.152868 0.471014
vt 0.155282 0.444867
vt 0.152868 0.444867
vt 0.155282 0.444867
vt 0.152868 0.444867
vt 0.220608 0.444867
vt 0.223023 0.444867
vt 0.220608 0.444867
vt 0.223023 0.444867
vt 0.221308 0.375852
vt 0.218929 0.375852
vt 0.154583 0.375852
vt 0.156961 0.375852
vt 0.156961 0.375852
vt 0.154583 0.375852
vt 0.221308 0.375852
vt 0.218929 0.375852
vt 0.155294 0.429659
vt 0.152868 0.429659
vt 0.155294 0.429659
vt 0.152868 0.429659
vt 0.223023 0.429659
vt 0.220596 0.429659
vt 0.223023 0.429659
vt 0.220596 0.429659
vt 0.156961 0.325613
vt 0.218929 0.325613
vt 0.218929 0.375852
vt 0.154583 0.325613
vt 0.154583 0.325613
vt 0.154583 0.375852
vt 0.156961 0.375852
vt 0.221308 0.325613
vt 0.221308 0.325613
vt 0.218929 0.325613
vt 0.156961 0.325613
vt 0.221308 0.375852
vt 0.154583 0.325613
vt 0.154583 0.325613
vt 0.221308 0.325613
vt 0.221308 0.325613
vt 0.218929 0.325613
vt 0.156961 0.325613
vt 0.156961 0.325613
vt 0.218929 0.325613
vt 0.419733 0.586442
vt 0.419733 0.702956
vt 0.449114 0.702956
vt 0.449114 0.586442
vt 0.415567 0.648330
vt 0.415567 0.569960
vt 0.413842 0.569960
vt 0.413842 0.648330
vt 0.449114 0.559055
vt 0.419733 0.559055
vt 0.419733 0.562243
vt 0.449114 0.562243
vt 0.453280 0.562243
vt 0.452512 0.563662
vt 0.453280 0.569960
vt 0.453280 0.586442
vt 0.452512 0.580144
vt 0.449114 0.578725
vt 0.449114 0.692298
vt 0.453280 0.656037
vt 0.452512 0.654618
vt 0.449114 0.708780
vt 0.452512 0.671100
vt 0.453280 0.664812
vt 0.454995 0.648330
vt 0.453280 0.648330
vt 0.415567 0.562243
vt 0.416325 0.563662
vt 0.419733 0.695490
vt 0.419733 0.692298
vt 0.416325 0.654618
vt 0.419733 0.578725
vt 0.416325 0.580144
vt 0.415567 0.586442
vt 0.415567 0.656037
vt 0.415567 0.664812
vt 0.416325 0.671100
vt 0.419733 0.708780
vt 0.454995 0.569960
vt 0.449114 0.695490
vt 0.419733 0.586442
vt 0.419733 0.702956
vt 0.449114 0.702956
vt 0.449114 0.586442
vt 0.415567 0.648330
vt 0.415567 0.569960
vt 0.413842 0.569960
vt 0.413842 0.648330
vt 0.449114 0.559055
vt 0.419733 0.559055
vt 0.419733 0.562243
vt 0.449114 0.562243
vt 0.453280 0.562243
vt 0.452512 0.563662
vt 0.453280 0.569960
vt 0.453280 0.586442
vt 0.452512 0.580144
vt 0.449114 0.578725
vt 0.449114 0.692298
vt 0.453280 0.656037
vt 0.452512 0.654618
vt 0.449114 0.708780
vt 0.452512 0.671100
vt 0.453280 0.664812
vt 0.454995 0.648330
vt 0.453280 0.648330
vt 0.415567 0.562243
vt 0.416325 0.563662
vt 0.419733 0.695490
vt 0.419733 0.692298
vt 0.416325 0.654618
vt 0.419733 0.578725
vt 0.416325 0.580144
vt 0.415567 0.586442
vt 0.415567 0.656037
vt 0.415567 0.664812
vt 0.416325 0.671100
vt 0.419733 0.708780
vt 0.454995 0.569960
vt 0.449114 0.695490
vn -1.0000 -0.0000 0.0000
vn -0.1624 0.2861 0.9443
vn 0.1624 0.2861 0.9443
vn 0.1318 0.5638 0.8153
vn -0.1318 0.5638 0.8153
vn 0.1624 0.2861 -0.9443
vn -0.1624 0.2861 -0.9443
vn -0.1318 0.5638 -0.8153
vn 0.1318 0.5638 -0.8153
vn 1.0000 0.0000 -0.0000
vn 0.2378 0.9713 0.0000
vn -0.2378 0.9713 0.0000
vn 0.5297 -0.7637 -0.3690
vn 0.5297 -0.7637 0.3690
vn 0.5682 -0.7628 0.3089
vn 0.5682 -0.7628 -0.3089
vn 0.1672 0.0002 0.9859
vn -0.1672 0.0002 0.9859
vn -0.1672 0.0002 -0.9859
vn 0.1672 0.0002 -0.9859
vn 0.1409 -0.6932 0.7069
vn -0.1409 -0.6932 0.7069
vn -0.1696 -0.6978 0.6960
vn 0.1696 -0.6978 0.6960
vn -0.1409 -0.6932 -0.7069
vn 0.1409 -0.6932 -0.7069
vn 0.1696 -0.6978 -0.6960
vn -0.1696 -0.6978 -0.6960
vn -0.5297 -0.7637 0.3690
vn -0.5297 -0.7637 -0.3690
vn -0.5682 -0.7627 -0.3089
vn -0.5682 -0.7627 0.3089
vn -0.4681 0.8837 0.0000
vn 0.4681 0.8837 -0.0000
vn 0.3007 0.5467 -0.7815
vn 0.3279 0.3020 -0.8951
vn 0.3279 0.3020 0.8951
vn 0.3007 0.5467 0.7815
vn -0.3007 0.5467 0.7815
vn -0.3279 0.3020 0.8951
vn -0.3279 0.3020 -0.8951
vn -0.3007 0.5467 -0.7815
vn 0.3297 0.0005 -0.9441
vn 0.3297 0.0005 0.9441
vn -0.3297 0.0005 0.9441
vn -0.3297 0.0005 -0.9441
vn 0.0000 -1.0000 -0.0000
vn 0.0000 0.0000 -1.0000
vn 0.0000 -0.0000 1.0000
vn 0.1704 -0.1871 0.9674
vn 0.1704 0.1871 0.9674
vn -0.1704 0.1871 0.9674
vn -0.1704 -0.1871 0.9674
vn 0.9936 0.0987 -0.0555
vn 0.9936 -0.0987 -0.0555
vn 0.9965 -0.0457 -0.0697
vn 0.9965 0.0457 -0.0697
vn -0.0411 -0.9972 -0.0619
vn 0.0411 -0.9972 -0.0619
vn 0.0803 -0.9955 -0.0504
vn -0.0803 -0.9955 -0.0504
vn -0.9965 -0.0457 -0.0697
vn -0.9646 -0.2635 -0.0098
vn -0.9936 -0.0987 -0.0555
vn -0.3430 -0.1649 0.9247
vn -0.3100 -0.3432 0.8867
vn -0.1510 -0.3751 0.9146
vn -0.0803 0.9955 -0.0504
vn -0.0411 0.9972 -0.0619
vn -0.2176 0.9760 -0.0090
vn -0.1510 0.3751 0.9146
vn -0.3100 0.3432 0.8867
vn -0.3430 0.1650 0.9247
vn -0.9646 0.2635 -0.0098
vn -0.9965 0.0457 -0.0697
vn -0.9936 0.0987 -0.0555
vn 0.2176 -0.9760 -0.0090
vn 0.9646 -0.2635 -0.0098
vn 0.0411 0.9972 -0.0619
vn 0.0803 0.9955 -0.0504
vn 0.2176 0.9760 -0.0090
vn 0.1510 -0.3751 0.9146
vn 0.3100 -0.3432 0.8867
vn 0.3430 -0.1649 0.9247
vn 0.9646 0.2635 -0.0098
vn 0.3430 0.1649 0.9247
vn 0.3100 0.3432 0.8867
vn 0.1510 0.3751 0.9146
vn -0.2176 -0.9760 -0.0090
vn -0.3430 0.1649 0.9247
usemtl engineer
s 1
f 30/1/1 1/2/1 4/3/1 25/4/1
f 2/5/2 5/6/3 16/7/4 10/8/5
f 4/3/1 1/2/1 9/9/1 11/10/1
f 8/11/6 3/12/7 12/13/8 14/14/9
f 22/15/10 7/16/10 6/17/10 17/18/10
f 14/19/11 12/20/12 10/21/12 16/22/11
f 22/23/13 17/24/14 20/25/15 23/26/16
f 18/27/17 5/6/3 2/5/2 29/28/18
f 26/29/19 3/12/7 8/11/6 21/30/20
f 18/31/21 29/32/22 32/33/23 19/34/24
f 26/35/25 21/36/26 24/37/27 27/38/28
f 30/39/29 25/40/30 28/41/31 31/42/32
f 6/17/10 7/16/10 13/43/10 15/44/10
f 10/21/12 12/20/12 11/45/33 9/46/33
f 14/19/11 16/22/11 15/47/34 13/48/34
f 8/49/6 14/19/9 13/48/35 7/50/36
f 16/22/4 5/51/3 6/52/37 15/47/38
f 2/53/2 10/21/5 9/46/39 1/54/40
f 12/20/8 3/55/7 4/56/41 11/45/42
f 28/57/31 25/4/30 26/29/25 27/58/28
f 22/15/13 23/59/16 24/60/27 21/30/26
f 18/27/21 19/61/24 20/62/15 17/18/14
f 30/1/29 31/63/32 32/64/23 29/28/22
f 21/65/20 8/49/6 7/50/36 22/66/43
f 5/51/3 18/67/17 17/68/44 6/52/37
f 1/54/40 30/69/45 29/70/18 2/53/2
f 25/71/46 4/56/41 3/55/7 26/72/19
f 27/38/47 24/37/47 34/73/47 35/74/47
f 32/64/47 31/63/47 36/75/47
f 23/26/47 20/25/47 33/76/47 34/77/47
f 20/62/47 19/61/47 33/78/47
f 24/60/47 23/59/47 34/79/47
f 31/42/47 28/41/47 35/80/47 36/81/47
f 19/34/47 32/33/47 36/82/47 33/83/47
f 28/57/47 27/58/47 35/84/47
f 34/77/1 33/76/1 37/85/1 38/86/1
f 36/81/10 35/80/10 39/87/10 40/88/10
f 33/83/48 36/82/48 40/89/48 37/90/48
f 35/74/49 34/73/49 38/91/49 39/92/49
f 39/92/47 38/91/47 37/85/47 40/89/47
f 51/93/50 55/94/51 45/95/52 41/96/53
f 58/97/54 53/98/55 59/99/56 60/100/57
f 49/101/58 59/102/59 54/103/60 42/104/61
f 49/105/62 43/106/63 44/107/64
f 41/96/53 44/108/65 43/109/66 42/110/67
f 46/111/68 50/112/69 47/113/70
f 45/95/52 46/114/71 47/115/72 48/116/73
f 47/113/74 50/117/75 48/118/76
f 54/103/60 59/119/59 52/120/77
f 52/120/78 59/99/56 53/98/55
f 60/121/79 56/122/80 57/123/81
f 51/93/50 54/124/82 52/125/83 53/126/84
f 60/127/57 57/123/85 58/97/54
f 55/94/51 58/128/86 57/129/87 56/130/88
f 44/107/64 48/118/76 50/117/75 49/131/62
f 41/96/53 45/95/52 48/116/73 44/108/65
f 55/94/51 51/93/50 53/126/84 58/128/86
f 46/111/68 56/122/80 60/121/79 50/132/69
f 42/110/67 54/124/82 51/93/50 41/96/53
f 56/130/88 46/114/71 45/95/52 55/94/51
f 49/101/58 42/104/61 43/106/89
f 71/133/50 75/134/51 65/135/52 61/136/53
f 78/137/54 73/138/55 79/139/56 80/140/57
f 69/141/58 79/142/59 74/143/60 62/144/61
f 69/145/62 63/146/63 64/147/64
f 61/136/53 64/148/65 63/149/66 62/150/67
f 66/151/68 70/152/69 67/153/70
f 65/135/52 66/154/71 67/155/72 68/156/90
f 67/153/74 70/157/75 68/158/76
f 74/143/60 79/159/59 72/160/77
f 72/160/78 79/139/56 73/138/55
f 80/161/79 76/162/80 77/163/81
f 71/133/50 74/164/82 72/165/83 73/166/84
f 80/167/57 77/163/85 78/137/54
f 75/134/51 78/168/86 77/169/87 76/170/88
f 64/147/64 68/158/76 70/157/75 69/171/62
f 61/136/53 65/135/52 68/156/90 64/148/65
f 75/134/51 71/133/50 73/166/84 78/168/86
f 66/151/68 76/162/80 80/161/79 70/172/69
f 62/150/67 74/164/82 71/133/50 61/136/53
f 76/170/88 66/154/71 65/135/52 75/134/51
f 69/141/58 62/144/61 63/146/89
f 79/139/48 69/171/48 70/172/48 80/140/48
f 49/101/48 50/132/48 60/100/48 59/102/48
