# Blender v3.4.1 OBJ File: 'Adventurers_2.0_Accessories_Export.blend'
# www.blender.org
mtllib potion_medium_orange.mtl
o potion_medium_orange
v -0.046711 0.043775 -0.064291
v -0.000001 0.032846 -0.060435
v -0.075579 0.043775 -0.024557
v 0.035522 0.032846 -0.048893
v -0.075579 0.043775 0.024557
v 0.057477 0.032846 -0.018675
v -0.046711 0.043775 0.064292
v 0.057477 0.032846 0.018676
v -0.000001 0.043775 0.079469
v 0.035522 0.032846 0.048894
v 0.046710 0.043775 0.064292
v -0.000001 0.032846 0.060436
v 0.075578 0.043775 0.024557
v -0.035524 0.032846 0.048894
v 0.075578 0.043775 -0.024557
v -0.057478 0.032846 0.018676
v -0.000001 0.043775 -0.079468
v -0.057478 0.032846 -0.018675
v -0.021722 0.086705 -0.029906
v -0.035524 0.032846 -0.048893
v -0.000001 -0.032842 -0.060435
v -0.035151 0.086705 -0.011423
v 0.035522 -0.032842 -0.048893
v -0.035151 0.086705 0.011424
v 0.057477 -0.032842 -0.018675
v -0.021722 0.086705 0.029907
v 0.057477 -0.032842 0.018676
v 0.000006 0.086705 0.036967
v 0.035522 -0.032842 0.048894
v 0.021734 0.086705 0.029907
v -0.000001 -0.032842 0.060436
v 0.035163 0.086705 0.011424
v -0.035524 -0.032842 0.048894
v 0.035163 0.086705 -0.011423
v -0.057478 -0.032842 0.018676
v 0.000006 0.086705 -0.036966
v -0.057478 -0.032842 -0.018675
v 0.021734 0.086705 -0.029906
v -0.035524 -0.032842 -0.048893
v 0.046710 0.043775 -0.064291
v 0.000004 0.151400 0.000000
v 0.000004 0.139869 -0.052246
v -0.030706 0.139869 -0.042267
v -0.049685 0.139869 -0.016145
v -0.049685 0.139869 0.016145
v -0.030706 0.139869 0.042268
v 0.000004 0.139869 0.052246
v 0.030713 0.139869 0.042268
v 0.049692 0.139869 0.016145
v 0.049692 0.139869 -0.016145
v 0.030713 0.139869 -0.042268
v -0.075579 0.079502 0.024557
v -0.075579 0.079502 -0.024557
v -0.046711 0.079502 -0.064291
v 0.075578 0.079502 -0.024557
v 0.046710 0.079502 -0.064291
v -0.000001 0.079502 -0.079468
v 0.075578 0.079502 0.024557
v 0.046710 0.079502 0.064292
v -0.046711 0.079502 0.064292
v -0.000001 0.079502 0.079469
v 0.065458 -0.057065 -0.090127
v 0.105928 -0.139253 -0.145829
v 0.105928 -0.240843 -0.145829
v 0.065458 -0.323031 -0.090127
v 0.105928 -0.057065 -0.034425
v 0.171410 -0.139253 -0.055701
v 0.171410 -0.240843 -0.055701
v 0.105928 -0.323031 -0.034425
v 0.105928 -0.057065 0.034427
v 0.171410 -0.139253 0.055703
v 0.171410 -0.240843 0.055703
v 0.105928 -0.323031 0.034427
v 0.065458 -0.057065 0.090129
v 0.105928 -0.139253 0.145831
v 0.105928 -0.240843 0.145831
v 0.065458 -0.323031 0.090129
v -0.000024 -0.057065 0.111405
v -0.000024 -0.139253 0.180256
v -0.000024 -0.240843 0.180256
v -0.000024 -0.323031 0.111405
v -0.065505 -0.057065 0.090129
v -0.105975 -0.139253 0.145831
v -0.105975 -0.240843 0.145831
v -0.065505 -0.323031 0.090129
v -0.105975 -0.057065 0.034427
v -0.171457 -0.139253 0.055703
v -0.171457 -0.240843 0.055703
v -0.105975 -0.323031 0.034427
v -0.000024 -0.354424 0.000001
v -0.105975 -0.057065 -0.034425
v -0.171457 -0.139253 -0.055701
v -0.171457 -0.240843 -0.055701
v -0.105975 -0.323031 -0.034425
v -0.065505 -0.057065 -0.090127
v -0.105975 -0.139253 -0.145829
v -0.105975 -0.240843 -0.145829
v -0.065505 -0.323031 -0.090127
v -0.000024 -0.057065 -0.111403
v -0.000024 -0.139253 -0.180255
v -0.000024 -0.240843 -0.180255
v -0.000024 -0.323031 -0.111403
vt 0.165180 0.131014
vt 0.165180 0.067746
vt 0.174545 0.067746
vt 0.174545 0.131014
vt 0.189696 0.131014
vt 0.189696 0.067746
vt 0.189696 0.067746
vt 0.189696 0.131014
vt 0.183910 0.067746
vt 0.183910 0.131014
vt 0.183910 0.141924
vt 0.183910 0.084503
vt 0.174545 0.084503
vt 0.174545 0.141924
vt 0.174545 0.131014
vt 0.174545 0.067746
vt 0.165180 0.067746
vt 0.165180 0.131014
vt 0.159393 0.067746
vt 0.159393 0.131014
vt 0.159393 0.067746
vt 0.159393 0.131014
vt 0.160441 0.129084
vt 0.174545 0.129084
vt 0.174545 0.149167
vt 0.160441 0.149167
vt 0.183910 0.045282
vt 0.189696 0.045282
vt 0.197366 0.089362
vt 0.188649 0.089362
vt 0.183910 0.131014
vt 0.183910 0.067746
vt 0.165180 0.045282
vt 0.174545 0.045282
vt 0.174545 0.089362
vt 0.160441 0.089362
vt 0.183910 0.045282
vt 0.174545 0.045282
vt 0.174545 0.089362
vt 0.188649 0.089362
vt 0.672933 0.028271
vt 0.672933 0.028271
vt 0.670622 0.100717
vt 0.670622 0.100717
vt 0.159393 0.045282
vt 0.159393 0.045282
vt 0.151723 0.089362
vt 0.151723 0.089362
vt 0.165180 0.045282
vt 0.160441 0.089362
vt 0.151723 0.129084
vt 0.151723 0.149167
vt 0.151723 0.129084
vt 0.151723 0.149167
vt 0.174545 0.157586
vt 0.188649 0.157586
vt 0.188649 0.177668
vt 0.174545 0.177668
vt 0.188649 0.129084
vt 0.197366 0.129084
vt 0.197366 0.149167
vt 0.188649 0.149167
vt 0.188649 0.129084
vt 0.174545 0.129084
vt 0.174545 0.149167
vt 0.188649 0.149167
vt 0.197366 0.129084
vt 0.197366 0.149167
vt 0.160441 0.129084
vt 0.160441 0.149167
vt 0.167731 0.203958
vt 0.160441 0.188889
vt 0.151723 0.188889
vt 0.163518 0.203958
vt 0.151723 0.188889
vt 0.163518 0.203958
vt 0.160441 0.188889
vt 0.167731 0.203958
vt 0.174545 0.188889
vt 0.174545 0.203958
vt 0.174545 0.232460
vt 0.174545 0.217391
vt 0.188649 0.217391
vt 0.181361 0.232460
vt 0.181361 0.203958
vt 0.188649 0.188889
vt 0.197366 0.188889
vt 0.185571 0.203958
vt 0.197366 0.188889
vt 0.185571 0.203958
vt 0.188649 0.188889
vt 0.181361 0.203958
vt 0.174545 0.188889
vt 0.174545 0.203958
vt 0.692842 0.028271
vt 0.685237 0.028271
vt 0.685237 0.100717
vt 0.694270 0.100717
vt 0.692842 0.028271
vt 0.697540 0.028271
vt 0.699855 0.100717
vt 0.694270 0.100717
vt 0.677634 0.028271
vt 0.676204 0.100717
vt 0.677634 0.028271
vt 0.676204 0.100717
vt 0.697540 0.028271
vt 0.699855 0.100717
vt 0.685237 0.028271
vt 0.685237 0.100717
vt 0.685237 0.182203
vt 0.685237 0.145810
vt 0.676204 0.145810
vt 0.670622 0.145810
vt 0.670622 0.145810
vt 0.676204 0.145810
vt 0.685237 0.145810
vt 0.694270 0.145810
vt 0.699855 0.145810
vt 0.699855 0.145810
vt 0.694270 0.145810
vt 0.189696 0.045282
vt 0.197366 0.089362
vt 0.174545 0.073784
vt 0.183910 0.073784
vt 0.188649 0.117863
vt 0.174545 0.117863
vt 0.174550 0.045294
vt 0.174550 0.092535
vt 0.200998 0.092535
vt 0.190899 0.045294
vt 0.174550 0.128501
vt 0.174550 0.184198
vt 0.190899 0.184198
vt 0.200998 0.128501
vt 0.174550 0.017255
vt 0.190899 0.184198
vt 0.200998 0.184198
vt 0.188905 0.142250
vt 0.183425 0.142250
vt 0.217347 0.092535
vt 0.200998 0.045294
vt 0.200998 0.184198
vt 0.217347 0.128501
vt 0.174550 0.212700
vt 0.190899 0.212700
vt 0.183425 0.160807
vt 0.174557 0.160807
vt 0.217347 0.092535
vt 0.200998 0.045294
vt 0.217347 0.128501
vt 0.158208 0.184198
vt 0.174550 0.184198
vt 0.174557 0.142250
vt 0.165689 0.142250
vt 0.200998 0.092535
vt 0.190899 0.045294
vt 0.200998 0.128501
vt 0.148102 0.184198
vt 0.160209 0.142250
vt 0.200998 0.121037
vt 0.174550 0.121037
vt 0.174550 0.045294
vt 0.200998 0.157003
vt 0.174550 0.157003
vt 0.148102 0.184198
vt 0.160209 0.142250
vt 0.174550 0.092535
vt 0.148102 0.092535
vt 0.158208 0.045294
vt 0.174550 0.128501
vt 0.148102 0.128501
vt 0.183425 0.142250
vt 0.188905 0.142250
vt 0.131760 0.092535
vt 0.148102 0.045294
vt 0.131760 0.128501
vt 0.174557 0.142250
vt 0.131760 0.092535
vt 0.148102 0.045294
vt 0.131760 0.128501
vt 0.158208 0.184198
vt 0.165689 0.142250
vt 0.148102 0.092535
vt 0.158208 0.045294
vt 0.148102 0.128501
vn -0.5878 0.0000 -0.8090
vn -0.0000 0.0000 -1.0000
vn 0.9511 0.0000 -0.3090
vn 0.9511 -0.0000 0.3090
vn 0.5878 -0.0000 0.8090
vn 0.0000 -0.0000 1.0000
vn -0.5878 -0.0000 0.8090
vn -0.9511 -0.0000 0.3090
vn -0.9511 0.0000 -0.3090
vn 0.2927 -0.8672 0.4029
vn 0.4736 -0.8672 0.1539
vn 0.5878 0.0000 -0.8090
vn -0.2927 -0.8672 0.4029
vn 0.0000 -0.8672 0.4980
vn 0.2927 -0.8672 -0.4029
vn -0.0000 -0.8672 -0.4980
vn -0.9140 -0.2763 -0.2970
vn -0.9140 -0.2763 0.2970
vn -0.4736 -0.8672 -0.1539
vn -0.4736 -0.8672 0.1539
vn -0.2927 -0.8672 -0.4029
vn -0.0982 0.9859 -0.1352
vn -0.1589 0.9859 -0.0516
vn -0.1589 0.9859 0.0516
vn -0.0982 0.9859 0.1352
vn -0.0000 0.9859 0.1671
vn 0.0982 0.9859 0.1352
vn 0.1589 0.9859 0.0516
vn 0.1589 0.9859 -0.0516
vn 0.0982 0.9859 -0.1352
vn -0.0000 0.9859 -0.1671
vn 0.5649 -0.2762 -0.7775
vn 0.0000 -0.2762 -0.9611
vn 0.5649 -0.2762 0.7775
vn 0.9141 -0.2762 0.2970
vn -0.5649 -0.2762 0.7775
vn -0.5649 -0.2762 -0.7775
vn 0.9141 -0.2762 -0.2970
vn 0.0000 -0.2762 0.9611
vn 0.0000 1.0000 0.0000
vn -0.0000 0.9765 -0.2155
vn -0.1267 0.9765 -0.1744
vn -0.2050 0.9765 -0.0666
vn -0.2050 0.9765 0.0666
vn -0.1267 0.9765 0.1744
vn 0.0000 0.9765 0.2155
vn 0.1267 0.9765 0.1744
vn 0.2050 0.9765 0.0666
vn 0.2050 0.9765 -0.0666
vn 0.1267 0.9765 -0.1744
vn 0.4736 -0.8672 -0.1539
vn -0.0000 -0.8133 -0.5819
vn -0.0000 -0.3218 -0.9468
vn 0.5565 -0.3218 -0.7660
vn 0.3420 -0.8133 -0.4708
vn -0.0000 0.3218 -0.9468
vn -0.0000 0.7707 -0.6372
vn 0.3745 0.7707 -0.5155
vn 0.5565 0.3218 -0.7660
vn -0.0000 -1.0000 0.0000
vn 0.3745 0.7707 0.5155
vn 0.6060 0.7707 0.1969
vn 0.4084 0.9031 0.1327
vn 0.2524 0.9031 0.3473
vn 0.9005 -0.3218 -0.2926
vn 0.5534 -0.8133 -0.1798
vn 0.6060 0.7707 -0.1969
vn 0.9005 0.3218 -0.2926
vn -0.0000 0.7707 0.6372
vn 0.0000 0.9032 0.4292
vn 0.9005 -0.3218 0.2926
vn 0.5534 -0.8133 0.1798
vn 0.9005 0.3218 0.2926
vn -0.3745 0.7708 0.5154
vn -0.2522 0.9032 0.3472
vn 0.5565 -0.3218 0.7660
vn 0.3420 -0.8133 0.4708
vn 0.5565 0.3218 0.7660
vn -0.6059 0.7708 0.1969
vn -0.4081 0.9033 0.1326
vn 0.0000 -0.3218 0.9468
vn 0.0000 -0.8133 0.5819
vn 0.0000 0.3218 0.9468
vn -0.6059 0.7708 -0.1969
vn -0.4081 0.9033 -0.1326
vn -0.5565 -0.3218 0.7660
vn -0.3420 -0.8133 0.4708
vn -0.5565 0.3218 0.7660
vn 0.2524 0.9031 -0.3473
vn 0.4084 0.9031 -0.1327
vn -0.9005 -0.3218 0.2926
vn -0.5534 -0.8133 0.1798
vn -0.9005 0.3218 0.2926
vn 0.0000 0.9032 -0.4292
vn -0.9005 -0.3218 -0.2926
vn -0.5534 -0.8133 -0.1798
vn -0.9005 0.3218 -0.2926
vn -0.3745 0.7708 -0.5154
vn -0.2522 0.9032 -0.3472
vn -0.5565 -0.3218 -0.7660
vn -0.3420 -0.8133 -0.4708
vn -0.5565 0.3218 -0.7660
usemtl druid
s 1
f 39/1/1 20/2/1 2/3/2 21/4/2
f 25/5/3 6/6/3 8/7/4 27/8/4
f 27/8/4 8/7/4 10/9/5 29/10/5
f 29/11/5 10/12/5 12/13/6 31/14/6
f 31/15/6 12/16/6 14/17/7 33/18/7
f 33/18/7 14/17/7 16/19/8 35/20/8
f 35/20/8 16/19/8 18/21/9 37/22/9
f 7/23/7 9/24/6 61/25/6 60/26/7
f 10/27/10 8/28/11 13/29/11 11/30/10
f 37/22/9 18/21/9 20/2/1 39/1/1
f 23/31/12 4/32/12 6/6/3 25/5/3
f 14/33/13 12/34/14 9/35/14 7/36/13
f 4/37/15 2/38/16 17/39/16 40/40/15
f 22/41/17 24/42/18 45/43/18 44/44/17
f 18/45/19 16/46/20 5/47/20 3/48/19
f 20/49/21 18/45/19 3/48/19 1/50/21
f 5/51/8 7/23/7 60/26/7 52/52/8
f 3/53/9 5/51/8 52/52/8 53/54/9
f 9/55/6 11/56/5 59/57/5 61/58/6
f 11/59/5 13/60/4 58/61/4 59/62/5
f 40/63/12 17/64/2 57/65/2 56/66/12
f 13/60/4 15/67/3 55/68/3 58/61/4
f 15/67/3 40/63/12 56/66/12 55/68/3
f 17/64/2 1/69/1 54/70/1 57/65/2
f 1/69/1 3/53/9 53/54/9 54/70/1
f 19/71/22 54/72/22 53/73/23 22/74/23
f 22/74/23 53/73/23 52/75/24 24/76/24
f 24/76/24 52/75/24 60/77/25 26/78/25
f 26/78/25 60/77/25 61/79/26 28/80/26
f 28/81/26 61/82/26 59/83/27 30/84/27
f 30/85/27 59/86/27 58/87/28 32/88/28
f 32/88/28 58/87/28 55/89/29 34/90/29
f 34/90/29 55/89/29 56/91/30 38/92/30
f 38/92/30 56/91/30 57/93/31 36/94/31
f 38/95/32 36/96/33 42/97/33 51/98/32
f 30/99/34 32/100/35 49/101/35 48/102/34
f 24/42/18 26/103/36 46/104/36 45/43/18
f 36/96/33 19/105/37 43/106/37 42/97/33
f 32/100/35 34/107/38 50/108/38 49/101/35
f 26/103/36 28/109/39 47/110/39 46/104/36
f 19/105/37 22/41/17 44/44/17 43/106/37
f 34/107/38 38/95/32 51/98/32 50/108/38
f 28/109/39 30/99/34 48/102/34 47/110/39
f 41/111/40 42/112/41 43/113/42
f 41/111/40 43/113/42 44/114/43
f 41/111/40 44/114/43 45/115/44
f 41/111/40 45/115/44 46/116/45
f 41/111/40 46/116/45 47/117/46
f 41/111/40 47/117/46 48/118/47
f 41/111/40 48/118/47 49/119/48
f 41/111/40 49/119/48 50/120/49
f 41/111/40 50/120/49 51/121/50
f 41/111/40 51/121/50 42/112/41
f 8/28/11 6/122/51 15/123/51 13/29/11
f 6/122/51 4/37/15 40/40/15 15/123/51
f 16/46/20 14/33/13 7/36/13 5/47/20
f 12/124/14 10/125/10 11/126/10 9/127/14
f 2/38/16 20/49/21 1/50/21 17/39/16
f 36/94/31 57/93/31 54/72/22 19/71/22
f 21/4/2 2/3/2 4/32/12 23/31/12
f 102/128/52 101/129/53 64/130/54 65/131/55
f 100/132/56 99/133/57 62/134/58 63/135/59
f 90/136/60 102/128/52 65/131/55
f 101/129/53 100/132/56 63/135/59 64/130/54
f 74/137/61 70/138/62 27/139/63 29/140/64
f 65/131/55 64/130/54 68/141/65 69/142/66
f 63/135/59 62/134/58 66/143/67 67/144/68
f 90/136/60 65/131/55 69/142/66
f 64/130/54 63/135/59 67/144/68 68/141/65
f 78/145/69 74/146/61 29/147/64 31/148/70
f 69/142/66 68/141/65 72/149/71 73/150/72
f 67/144/68 66/143/67 70/138/62 71/151/73
f 90/136/60 69/142/66 73/150/72
f 68/141/65 67/144/68 71/151/73 72/149/71
f 82/152/74 78/153/69 31/154/70 33/155/75
f 73/150/72 72/149/71 76/156/76 77/157/77
f 71/151/73 70/138/62 74/137/61 75/158/78
f 90/136/60 73/150/72 77/157/77
f 72/149/71 71/151/73 75/158/78 76/156/76
f 86/159/79 82/152/74 33/155/75 35/160/80
f 77/157/77 76/161/76 80/162/81 81/163/82
f 75/164/78 74/146/61 78/145/69 79/165/83
f 90/136/60 77/157/77 81/163/82
f 76/161/76 75/164/78 79/165/83 80/162/81
f 91/166/84 86/159/79 35/160/80 37/167/85
f 81/163/82 80/168/81 84/169/86 85/170/87
f 79/171/83 78/153/69 82/152/74 83/172/88
f 90/136/60 81/163/82 85/170/87
f 80/168/81 79/171/83 83/172/88 84/169/86
f 66/143/67 62/134/58 23/173/89 25/174/90
f 85/170/87 84/169/86 88/175/91 89/176/92
f 83/172/88 82/152/74 86/159/79 87/177/93
f 90/136/60 85/170/87 89/176/92
f 84/169/86 83/172/88 87/177/93 88/175/91
f 62/134/58 99/133/57 21/178/94 23/173/89
f 89/176/92 88/175/91 93/179/95 94/180/96
f 87/177/93 86/159/79 91/166/84 92/181/97
f 90/136/60 89/176/92 94/180/96
f 88/175/91 87/177/93 92/181/97 93/179/95
f 95/182/98 91/166/84 37/167/85 39/183/99
f 94/180/96 93/179/95 97/184/100 98/185/101
f 92/181/97 91/166/84 95/182/98 96/186/102
f 90/136/60 94/180/96 98/185/101
f 93/179/95 92/181/97 96/186/102 97/184/100
f 99/133/57 95/182/98 39/183/99 21/178/94
f 98/185/101 97/184/100 101/129/53 102/128/52
f 96/186/102 95/182/98 99/133/57 100/132/56
f 90/136/60 98/185/101 102/128/52
f 97/184/100 96/186/102 100/132/56 101/129/53
f 70/138/62 66/143/67 25/174/90 27/139/63
