# Blender v3.4.1 OBJ File: 'Adventurers_2.0_Accessories_Export.blend'
# www.blender.org
mtllib potion_small_orange.mtl
o potion_small_orange
v -0.046711 0.043775 -0.064291
v -0.000001 0.032846 -0.060435
v -0.075579 0.043775 -0.024557
v 0.035522 0.032846 -0.048893
v -0.075579 0.043775 0.024557
v 0.057477 0.032846 -0.018675
v -0.046711 0.043775 0.064292
v 0.057477 0.032846 0.018676
v -0.000001 0.043775 0.079469
v 0.035522 0.032846 0.048894
v 0.046710 0.043775 0.064292
v -0.000001 0.032846 0.060436
v 0.075578 0.043775 0.024557
v -0.035524 0.032846 0.048894
v 0.075578 0.043775 -0.024557
v -0.057478 0.032846 0.018676
v -0.000001 0.043775 -0.079468
v -0.057478 0.032846 -0.018675
v -0.021722 0.086705 -0.029906
v -0.035524 0.032846 -0.048893
v -0.035151 0.086705 -0.011423
v -0.035151 0.086705 0.011424
v -0.021722 0.086705 0.029907
v 0.000006 0.086705 0.036967
v 0.021734 0.086705 0.029907
v 0.035163 0.086705 0.011424
v 0.035163 0.086705 -0.011423
v 0.000006 0.086705 -0.036966
v 0.021734 0.086705 -0.029906
v 0.046710 0.043775 -0.064291
v 0.000004 0.151400 0.000000
v 0.000004 0.139869 -0.052246
v -0.030706 0.139869 -0.042267
v -0.049685 0.139869 -0.016145
v -0.049685 0.139869 0.016145
v -0.030706 0.139869 0.042268
v 0.000004 0.139869 0.052246
v 0.030713 0.139869 0.042268
v 0.049692 0.139869 0.016145
v 0.049692 0.139869 -0.016145
v 0.030713 0.139869 -0.042268
v -0.075579 0.079502 0.024557
v -0.075579 0.079502 -0.024557
v -0.046711 0.079502 -0.064291
v 0.075578 0.079502 -0.024557
v 0.046710 0.079502 -0.064291
v -0.000001 0.079502 -0.079468
v 0.075578 0.079502 0.024557
v 0.046710 0.079502 0.064292
v -0.046711 0.079502 0.064292
v -0.000001 0.079502 0.079469
v 0.036391 -0.267825 -0.050107
v 0.022485 -0.300234 -0.030968
v 0.058890 -0.267825 -0.019139
v 0.036391 -0.300234 -0.011828
v 0.058890 -0.267825 0.019140
v 0.036391 -0.300234 0.011829
v 0.036391 -0.267825 0.050108
v 0.022485 -0.300234 0.030969
v -0.000015 -0.267825 0.061937
v -0.000015 -0.300234 0.038279
v -0.036420 -0.267825 0.050108
v -0.022514 -0.300234 0.030969
v -0.058920 -0.267825 0.019140
v -0.036420 -0.300234 0.011829
v -0.000015 -0.312613 0.000001
v -0.058920 -0.267825 -0.019139
v -0.036420 -0.300234 -0.011828
v -0.036420 -0.267825 -0.050107
v -0.022514 -0.300234 -0.030968
v -0.000015 -0.267825 -0.061936
v -0.000015 -0.300234 -0.038278
vt 0.217347 0.092535
vt 0.189696 0.067746
vt 0.183910 0.067746
vt 0.200998 0.092535
vt 0.200998 0.121037
vt 0.183910 0.084503
vt 0.174545 0.084503
vt 0.174550 0.121037
vt 0.174550 0.092535
vt 0.174545 0.067746
vt 0.165180 0.067746
vt 0.148102 0.092535
vt 0.159393 0.067746
vt 0.131760 0.092535
vt 0.159393 0.067746
vt 0.131760 0.092535
vt 0.165180 0.067746
vt 0.148102 0.092535
vt 0.160441 0.129084
vt 0.174545 0.129084
vt 0.174545 0.149167
vt 0.160441 0.149167
vt 0.183910 0.045282
vt 0.189696 0.045282
vt 0.197366 0.089362
vt 0.188649 0.089362
vt 0.174545 0.067746
vt 0.174550 0.092535
vt 0.217347 0.092535
vt 0.189696 0.067746
vt 0.165180 0.045282
vt 0.174545 0.045282
vt 0.174545 0.089362
vt 0.160441 0.089362
vt 0.183910 0.045282
vt 0.174545 0.045282
vt 0.174545 0.089362
vt 0.188649 0.089362
vt 0.672933 0.028271
vt 0.672933 0.028271
vt 0.670622 0.100717
vt 0.670622 0.100717
vt 0.159393 0.045282
vt 0.159393 0.045282
vt 0.151723 0.089362
vt 0.151723 0.089362
vt 0.165180 0.045282
vt 0.160441 0.089362
vt 0.151723 0.129084
vt 0.151723 0.149167
vt 0.151723 0.129084
vt 0.151723 0.149167
vt 0.174545 0.157586
vt 0.188649 0.157586
vt 0.188649 0.177668
vt 0.174545 0.177668
vt 0.188649 0.129084
vt 0.197366 0.129084
vt 0.197366 0.149167
vt 0.188649 0.149167
vt 0.188649 0.129084
vt 0.174545 0.129084
vt 0.174545 0.149167
vt 0.188649 0.149167
vt 0.197366 0.129084
vt 0.197366 0.149167
vt 0.160441 0.129084
vt 0.160441 0.149167
vt 0.167731 0.203958
vt 0.160441 0.188889
vt 0.151723 0.188889
vt 0.163518 0.203958
vt 0.151723 0.188889
vt 0.163518 0.203958
vt 0.160441 0.188889
vt 0.167731 0.203958
vt 0.174545 0.188889
vt 0.174545 0.203958
vt 0.174545 0.232460
vt 0.174545 0.217391
vt 0.188649 0.217391
vt 0.181361 0.232460
vt 0.181361 0.203958
vt 0.188649 0.188889
vt 0.197366 0.188889
vt 0.185571 0.203958
vt 0.197366 0.188889
vt 0.185571 0.203958
vt 0.188649 0.188889
vt 0.181361 0.203958
vt 0.174545 0.188889
vt 0.174545 0.203958
vt 0.692842 0.028271
vt 0.685237 0.028271
vt 0.685237 0.100717
vt 0.694270 0.100717
vt 0.692842 0.028271
vt 0.697540 0.028271
vt 0.699855 0.100717
vt 0.694270 0.100717
vt 0.677634 0.028271
vt 0.676204 0.100717
vt 0.677634 0.028271
vt 0.676204 0.100717
vt 0.697540 0.028271
vt 0.699855 0.100717
vt 0.685237 0.028271
vt 0.685237 0.100717
vt 0.685237 0.182203
vt 0.685237 0.145810
vt 0.676204 0.145810
vt 0.670622 0.145810
vt 0.670622 0.145810
vt 0.676204 0.145810
vt 0.685237 0.145810
vt 0.694270 0.145810
vt 0.699855 0.145810
vt 0.699855 0.145810
vt 0.694270 0.145810
vt 0.189696 0.045282
vt 0.197366 0.089362
vt 0.174545 0.073784
vt 0.183910 0.073784
vt 0.188649 0.117863
vt 0.174545 0.117863
vt 0.200998 0.092535
vt 0.183910 0.067746
vt 0.174550 0.045294
vt 0.190899 0.045294
vt 0.174550 0.017255
vt 0.200998 0.045294
vt 0.200998 0.045294
vt 0.190899 0.045294
vt 0.174550 0.045294
vt 0.158208 0.045294
vt 0.148102 0.045294
vt 0.148102 0.045294
vt 0.158208 0.045294
vn 0.9099 -0.2911 0.2956
vn 0.9510 0.0049 0.3090
vn 0.5878 0.0050 0.8090
vn 0.5623 -0.2911 0.7740
vn 0.0000 0.0050 1.0000
vn -0.0000 -0.2911 0.9567
vn -0.5878 0.0050 0.8090
vn -0.5623 -0.2911 0.7740
vn -0.9510 0.0050 0.3090
vn -0.9099 -0.2910 0.2956
vn -0.9510 0.0050 -0.3090
vn -0.9099 -0.2910 -0.2956
vn -0.5878 0.0050 -0.8090
vn -0.5623 -0.2911 -0.7740
vn -0.5878 -0.0000 0.8090
vn 0.0000 -0.0000 1.0000
vn 0.2927 -0.8672 0.4029
vn 0.4736 -0.8672 0.1539
vn 0.0000 0.0050 -1.0000
vn -0.0000 -0.2911 -0.9567
vn 0.9099 -0.2911 -0.2956
vn 0.9510 0.0049 -0.3090
vn -0.2927 -0.8672 0.4029
vn 0.0000 -0.8672 0.4980
vn 0.2927 -0.8672 -0.4029
vn -0.0000 -0.8672 -0.4980
vn -0.9140 -0.2763 -0.2970
vn -0.9140 -0.2763 0.2970
vn -0.4736 -0.8672 -0.1539
vn -0.4736 -0.8672 0.1539
vn -0.2927 -0.8672 -0.4029
vn -0.9511 -0.0000 0.3090
vn -0.9511 0.0000 -0.3090
vn 0.5878 -0.0000 0.8090
vn 0.9511 -0.0000 0.3090
vn 0.5878 -0.0000 -0.8090
vn -0.0000 -0.0000 -1.0000
vn 0.9511 -0.0000 -0.3090
vn -0.5878 0.0000 -0.8090
vn -0.0982 0.9859 -0.1352
vn -0.1589 0.9859 -0.0516
vn -0.1589 0.9859 0.0516
vn -0.0982 0.9859 0.1352
vn -0.0000 0.9859 0.1671
vn 0.0982 0.9859 0.1352
vn 0.1589 0.9859 0.0516
vn 0.1589 0.9859 -0.0516
vn 0.0982 0.9859 -0.1352
vn -0.0000 0.9859 -0.1671
vn 0.5649 -0.2762 -0.7775
vn 0.0000 -0.2762 -0.9611
vn 0.5649 -0.2762 0.7775
vn 0.9141 -0.2762 0.2970
vn -0.5649 -0.2762 0.7775
vn -0.5649 -0.2762 -0.7775
vn 0.9141 -0.2762 -0.2970
vn 0.0000 -0.2762 0.9611
vn 0.0000 1.0000 0.0000
vn -0.0000 0.9765 -0.2155
vn -0.1267 0.9765 -0.1744
vn -0.2050 0.9765 -0.0666
vn -0.2050 0.9765 0.0666
vn -0.1267 0.9765 0.1744
vn 0.0000 0.9765 0.2155
vn 0.1267 0.9765 0.1744
vn 0.2050 0.9765 0.0666
vn 0.2050 0.9765 -0.0666
vn 0.1267 0.9765 -0.1744
vn 0.4736 -0.8672 -0.1539
vn 0.5623 -0.2911 -0.7740
vn 0.5878 0.0050 -0.8090
vn 0.0000 -0.7816 -0.6238
vn 0.3667 -0.7816 -0.5047
vn 0.0000 -1.0000 0.0000
vn 0.5933 -0.7816 -0.1928
vn 0.5933 -0.7816 0.1928
vn 0.3667 -0.7816 0.5047
vn 0.0000 -0.7816 0.6238
vn -0.3667 -0.7816 0.5047
vn -0.5933 -0.7816 0.1928
vn -0.5933 -0.7816 -0.1928
vn -0.3667 -0.7816 -0.5047
usemtl druid
s 1
f 56/1/1 8/2/2 10/3/3 58/4/4
f 58/5/4 10/6/3 12/7/5 60/8/6
f 60/9/6 12/10/5 14/11/7 62/12/8
f 62/12/8 14/11/7 16/13/9 64/14/10
f 64/14/10 16/13/9 18/15/11 67/16/12
f 67/16/12 18/15/11 20/17/13 69/18/14
f 7/19/15 9/20/16 51/21/16 50/22/15
f 10/23/17 8/24/18 13/25/18 11/26/17
f 69/18/14 20/17/13 2/27/19 71/28/20
f 54/29/21 6/30/22 8/2/2 56/1/1
f 14/31/23 12/32/24 9/33/24 7/34/23
f 4/35/25 2/36/26 17/37/26 30/38/25
f 21/39/27 22/40/28 35/41/28 34/42/27
f 18/43/29 16/44/30 5/45/30 3/46/29
f 20/47/31 18/43/29 3/46/29 1/48/31
f 5/49/32 7/19/15 50/22/15 42/50/32
f 3/51/33 5/49/32 42/50/32 43/52/33
f 9/53/16 11/54/34 49/55/34 51/56/16
f 11/57/34 13/58/35 48/59/35 49/60/34
f 30/61/36 17/62/37 47/63/37 46/64/36
f 13/58/35 15/65/38 45/66/38 48/59/35
f 15/65/38 30/61/36 46/64/36 45/66/38
f 17/62/37 1/67/39 44/68/39 47/63/37
f 1/67/39 3/51/33 43/52/33 44/68/39
f 19/69/40 44/70/40 43/71/41 21/72/41
f 21/72/41 43/71/41 42/73/42 22/74/42
f 22/74/42 42/73/42 50/75/43 23/76/43
f 23/76/43 50/75/43 51/77/44 24/78/44
f 24/79/44 51/80/44 49/81/45 25/82/45
f 25/83/45 49/84/45 48/85/46 26/86/46
f 26/86/46 48/85/46 45/87/47 27/88/47
f 27/88/47 45/87/47 46/89/48 29/90/48
f 29/90/48 46/89/48 47/91/49 28/92/49
f 29/93/50 28/94/51 32/95/51 41/96/50
f 25/97/52 26/98/53 39/99/53 38/100/52
f 22/40/28 23/101/54 36/102/54 35/41/28
f 28/94/51 19/103/55 33/104/55 32/95/51
f 26/98/53 27/105/56 40/106/56 39/99/53
f 23/101/54 24/107/57 37/108/57 36/102/54
f 19/103/55 21/39/27 34/42/27 33/104/55
f 27/105/56 29/93/50 41/96/50 40/106/56
f 24/107/57 25/97/52 38/100/52 37/108/57
f 31/109/58 32/110/59 33/111/60
f 31/109/58 33/111/60 34/112/61
f 31/109/58 34/112/61 35/113/62
f 31/109/58 35/113/62 36/114/63
f 31/109/58 36/114/63 37/115/64
f 31/109/58 37/115/64 38/116/65
f 31/109/58 38/116/65 39/117/66
f 31/109/58 39/117/66 40/118/67
f 31/109/58 40/118/67 41/119/68
f 31/109/58 41/119/68 32/110/59
f 8/24/18 6/120/69 15/121/69 13/25/18
f 6/120/69 4/35/25 30/38/25 15/121/69
f 16/44/30 14/31/23 7/34/23 5/45/30
f 12/122/24 10/123/17 11/124/17 9/125/24
f 2/36/26 20/47/31 1/48/31 17/37/26
f 28/92/49 47/91/49 44/70/40 19/69/40
f 52/126/70 4/127/71 6/30/22 54/29/21
f 72/128/72 71/28/20 52/126/70 53/129/73
f 66/130/74 72/128/72 53/129/73
f 53/129/73 52/126/70 54/29/21 55/131/75
f 66/130/74 53/129/73 55/131/75
f 55/131/75 54/29/21 56/1/1 57/132/76
f 66/130/74 55/131/75 57/132/76
f 57/132/76 56/1/1 58/4/4 59/133/77
f 66/130/74 57/132/76 59/133/77
f 59/133/77 58/5/4 60/8/6 61/134/78
f 66/130/74 59/133/77 61/134/78
f 61/134/78 60/9/6 62/12/8 63/135/79
f 66/130/74 61/134/78 63/135/79
f 63/135/79 62/12/8 64/14/10 65/136/80
f 66/130/74 63/135/79 65/136/80
f 65/136/80 64/14/10 67/16/12 68/137/81
f 66/130/74 65/136/80 68/137/81
f 68/137/81 67/16/12 69/18/14 70/138/82
f 66/130/74 68/137/81 70/138/82
f 70/138/82 69/18/14 71/28/20 72/128/72
f 66/130/74 70/138/82 72/128/72
f 71/28/20 2/27/19 4/127/71 52/126/70
