# Blender v3.4.1 OBJ File: 'Adventurers_2.0_Accessories_Export.blend'
# www.blender.org
mtllib potion_large_red.mtl
o potion_large_red
v -0.055305 0.051828 -0.076120
v -0.000001 0.038888 -0.071555
v -0.089485 0.051827 -0.029075
v 0.042058 0.038888 -0.057889
v -0.089485 0.051827 0.029075
v 0.068052 0.038888 -0.022112
v -0.055305 0.051827 0.076120
v 0.068052 0.038888 0.022112
v -0.000001 0.051827 0.094089
v 0.042058 0.038888 0.057889
v 0.055304 0.051827 0.076120
v -0.000001 0.038888 0.071555
v 0.089484 0.051827 0.029075
v -0.042059 0.038888 0.057889
v 0.089484 0.051827 -0.029075
v -0.068053 0.038888 0.022112
v -0.000001 0.051828 -0.094089
v -0.068053 0.038888 -0.022112
v -0.025719 0.102657 -0.035409
v -0.042059 0.038888 -0.057889
v -0.000001 -0.038886 -0.071555
v -0.041618 0.102657 -0.013525
v 0.042058 -0.038886 -0.057889
v -0.041618 0.102657 0.013525
v 0.068052 -0.038886 -0.022112
v -0.025719 0.102657 0.035408
v 0.068052 -0.038886 0.022112
v 0.000007 0.102657 0.043767
v 0.042058 -0.038886 0.057889
v 0.025733 0.102657 0.035408
v -0.000001 -0.038886 0.071555
v 0.041633 0.102657 0.013525
v -0.042059 -0.038886 0.057889
v 0.041633 0.102657 -0.013525
v -0.068053 -0.038886 0.022112
v 0.000007 0.102657 -0.043768
v -0.068053 -0.038886 -0.022112
v 0.025733 0.102657 -0.035409
v -0.042059 -0.038886 -0.057889
v 0.055304 0.051828 -0.076120
v 0.000005 0.179254 -0.000000
v 0.000005 0.165601 -0.061859
v -0.036355 0.165601 -0.050045
v -0.058826 0.165601 -0.019116
v -0.058826 0.165601 0.019115
v -0.036355 0.165601 0.050044
v 0.000005 0.165601 0.061858
v 0.036364 0.165601 0.050044
v 0.058835 0.165601 0.019115
v 0.058835 0.165601 -0.019116
v 0.036364 0.165601 -0.050045
v -0.089485 0.094128 0.029075
v -0.089485 0.094128 -0.029075
v -0.055305 0.094128 -0.076120
v 0.089484 0.094128 -0.029075
v 0.055304 0.094128 -0.076120
v -0.000001 0.094128 -0.094089
v 0.089484 0.094128 0.029075
v 0.055304 0.094128 0.076120
v -0.055305 0.094128 0.076120
v -0.000001 0.094128 0.094089
v 0.067211 -0.119161 -0.092546
v 0.108767 -0.189018 -0.149743
v 0.108767 -0.275366 -0.149743
v 0.067211 -0.345223 -0.092546
v 0.108767 -0.119161 -0.035349
v 0.176006 -0.189018 -0.057197
v 0.176006 -0.275366 -0.057197
v 0.108767 -0.345223 -0.035349
v 0.108767 -0.119161 0.035350
v 0.176006 -0.189018 0.057197
v 0.176006 -0.275366 0.057197
v 0.108767 -0.345223 0.035350
v 0.067211 -0.119161 0.092547
v 0.108767 -0.189018 0.149744
v 0.108767 -0.275366 0.149744
v 0.067211 -0.345223 0.092547
v -0.000028 -0.119161 0.114394
v -0.000028 -0.189018 0.185094
v -0.000028 -0.275366 0.185094
v -0.000028 -0.345223 0.114394
v -0.067267 -0.119161 0.092547
v -0.108823 -0.189018 0.149744
v -0.108823 -0.275366 0.149744
v -0.067267 -0.345223 0.092547
v -0.108823 -0.119161 0.035350
v -0.176062 -0.189018 0.057197
v -0.176062 -0.275366 0.057197
v -0.108823 -0.345223 0.035350
v -0.000028 -0.371905 0.000000
v -0.108823 -0.119161 -0.035349
v -0.176062 -0.189018 -0.057197
v -0.176062 -0.275366 -0.057197
v -0.108823 -0.345223 -0.035349
v -0.067267 -0.119161 -0.092546
v -0.108823 -0.189018 -0.149743
v -0.108823 -0.275366 -0.149743
v -0.067267 -0.345223 -0.092546
v -0.000028 -0.119161 -0.114394
v -0.000028 -0.189018 -0.185093
v -0.000028 -0.275366 -0.185093
v -0.000028 -0.345223 -0.114394
vt 0.540180 0.131014
vt 0.540180 0.067746
vt 0.549545 0.067746
vt 0.549545 0.131014
vt 0.564696 0.131014
vt 0.564696 0.067746
vt 0.564696 0.067746
vt 0.564696 0.131014
vt 0.558910 0.067746
vt 0.558910 0.131014
vt 0.558910 0.141924
vt 0.558910 0.084503
vt 0.549545 0.084503
vt 0.549545 0.141924
vt 0.549545 0.131014
vt 0.549545 0.067746
vt 0.540180 0.067746
vt 0.540180 0.131014
vt 0.534393 0.067746
vt 0.534393 0.131014
vt 0.534393 0.067746
vt 0.534393 0.131014
vt 0.535441 0.129084
vt 0.549545 0.129084
vt 0.549545 0.149167
vt 0.535441 0.149167
vt 0.558910 0.045282
vt 0.564696 0.045282
vt 0.572366 0.089362
vt 0.563649 0.089362
vt 0.558910 0.131014
vt 0.558910 0.067746
vt 0.540180 0.045282
vt 0.549545 0.045282
vt 0.549545 0.089362
vt 0.535441 0.089362
vt 0.558910 0.045282
vt 0.549545 0.045282
vt 0.549545 0.089362
vt 0.563649 0.089362
vt 0.672933 0.028271
vt 0.672933 0.028271
vt 0.670622 0.100717
vt 0.670622 0.100717
vt 0.534393 0.045282
vt 0.534393 0.045282
vt 0.526723 0.089362
vt 0.526723 0.089362
vt 0.540180 0.045282
vt 0.535441 0.089362
vt 0.526723 0.129084
vt 0.526723 0.149167
vt 0.526723 0.129084
vt 0.526723 0.149167
vt 0.549545 0.157586
vt 0.563649 0.157586
vt 0.563649 0.177668
vt 0.549545 0.177668
vt 0.563649 0.129084
vt 0.572366 0.129084
vt 0.572366 0.149167
vt 0.563649 0.149167
vt 0.563649 0.129084
vt 0.549545 0.129084
vt 0.549545 0.149167
vt 0.563649 0.149167
vt 0.572366 0.129084
vt 0.572366 0.149167
vt 0.535441 0.129084
vt 0.535441 0.149167
vt 0.542731 0.203958
vt 0.535441 0.188889
vt 0.526723 0.188889
vt 0.538518 0.203958
vt 0.526723 0.188889
vt 0.538518 0.203958
vt 0.535441 0.188889
vt 0.542731 0.203958
vt 0.549545 0.188889
vt 0.549545 0.203958
vt 0.549545 0.232460
vt 0.549545 0.217391
vt 0.563649 0.217391
vt 0.556361 0.232460
vt 0.556361 0.203958
vt 0.563649 0.188889
vt 0.572366 0.188889
vt 0.560571 0.203958
vt 0.572366 0.188889
vt 0.560571 0.203958
vt 0.563649 0.188889
vt 0.556361 0.203958
vt 0.549545 0.188889
vt 0.549545 0.203958
vt 0.692842 0.028271
vt 0.685237 0.028271
vt 0.685237 0.100717
vt 0.694270 0.100717
vt 0.692842 0.028271
vt 0.697540 0.028271
vt 0.699855 0.100717
vt 0.694270 0.100717
vt 0.677634 0.028271
vt 0.676204 0.100717
vt 0.677634 0.028271
vt 0.676204 0.100717
vt 0.697540 0.028271
vt 0.699855 0.100717
vt 0.685237 0.028271
vt 0.685237 0.100717
vt 0.685237 0.182203
vt 0.685237 0.145810
vt 0.676204 0.145810
vt 0.670622 0.145810
vt 0.670622 0.145810
vt 0.676204 0.145810
vt 0.685237 0.145810
vt 0.694270 0.145810
vt 0.699855 0.145810
vt 0.699855 0.145810
vt 0.694270 0.145810
vt 0.564696 0.045282
vt 0.572366 0.089362
vt 0.549545 0.073784
vt 0.558910 0.073784
vt 0.563649 0.117863
vt 0.549545 0.117863
vt 0.549654 0.045294
vt 0.549654 0.095464
vt 0.572592 0.095464
vt 0.563831 0.045294
vt 0.549654 0.121282
vt 0.549654 0.168772
vt 0.563831 0.168772
vt 0.572592 0.121282
vt 0.549654 0.031526
vt 0.563831 0.168772
vt 0.572592 0.168772
vt 0.564009 0.142250
vt 0.558526 0.142250
vt 0.586768 0.095464
vt 0.572592 0.045294
vt 0.572592 0.168772
vt 0.586768 0.121282
vt 0.549654 0.197274
vt 0.563831 0.197274
vt 0.558526 0.160807
vt 0.549661 0.160807
vt 0.586768 0.095464
vt 0.572592 0.045294
vt 0.586768 0.121282
vt 0.535478 0.168772
vt 0.549654 0.168772
vt 0.549661 0.142250
vt 0.540793 0.142250
vt 0.572592 0.095464
vt 0.563831 0.045294
vt 0.572592 0.121282
vt 0.526717 0.168772
vt 0.535314 0.142250
vt 0.572592 0.123966
vt 0.549654 0.123966
vt 0.549654 0.045294
vt 0.572592 0.149784
vt 0.549654 0.149784
vt 0.526717 0.168772
vt 0.535314 0.142250
vt 0.549654 0.095464
vt 0.526717 0.095464
vt 0.535478 0.045294
vt 0.549654 0.121282
vt 0.526717 0.121282
vt 0.558526 0.142250
vt 0.564009 0.142250
vt 0.512540 0.095464
vt 0.526717 0.045294
vt 0.512540 0.121282
vt 0.549661 0.142250
vt 0.512540 0.095464
vt 0.526717 0.045294
vt 0.512540 0.121282
vt 0.535478 0.168772
vt 0.540793 0.142250
vt 0.526717 0.095464
vt 0.535478 0.045294
vt 0.526717 0.121282
vn -0.5684 0.2548 -0.7823
vn -0.5878 0.0000 -0.8090
vn -0.0000 0.0000 -1.0000
vn 0.0000 0.2547 -0.9670
vn 0.9197 0.2546 -0.2988
vn 0.9511 0.0000 -0.3090
vn 0.9511 -0.0000 0.3090
vn 0.9197 0.2546 0.2988
vn 0.5878 -0.0000 0.8090
vn 0.5684 0.2546 0.7823
vn 0.0000 -0.0000 1.0000
vn 0.0000 0.2547 0.9670
vn -0.5878 -0.0000 0.8090
vn -0.5684 0.2548 0.7823
vn -0.9511 -0.0000 0.3090
vn -0.9197 0.2548 0.2988
vn -0.9511 0.0000 -0.3090
vn -0.9197 0.2548 -0.2988
vn 0.2927 -0.8672 0.4029
vn 0.4736 -0.8672 0.1539
vn 0.5684 0.2546 -0.7823
vn 0.5878 0.0000 -0.8090
vn -0.2927 -0.8672 0.4029
vn 0.0000 -0.8672 0.4980
vn 0.2927 -0.8672 -0.4029
vn -0.0000 -0.8672 -0.4980
vn -0.9140 -0.2763 -0.2970
vn -0.9140 -0.2763 0.2970
vn -0.4736 -0.8672 -0.1539
vn -0.4736 -0.8672 0.1539
vn -0.2927 -0.8672 -0.4029
vn -0.0982 0.9859 -0.1352
vn -0.1589 0.9859 -0.0516
vn -0.1589 0.9859 0.0516
vn -0.0982 0.9859 0.1352
vn -0.0000 0.9859 0.1671
vn 0.0982 0.9859 0.1352
vn 0.1589 0.9859 0.0516
vn 0.1589 0.9859 -0.0516
vn 0.0982 0.9859 -0.1352
vn -0.0000 0.9859 -0.1671
vn 0.5649 -0.2762 -0.7775
vn 0.0000 -0.2762 -0.9611
vn 0.5649 -0.2762 0.7775
vn 0.9141 -0.2762 0.2970
vn -0.5649 -0.2762 0.7775
vn -0.5649 -0.2762 -0.7775
vn 0.9141 -0.2762 -0.2970
vn 0.0000 -0.2762 0.9611
vn -0.0000 1.0000 0.0000
vn -0.0000 0.9765 -0.2155
vn -0.1267 0.9765 -0.1744
vn -0.2050 0.9765 -0.0666
vn -0.2050 0.9765 0.0666
vn -0.1267 0.9765 0.1744
vn -0.0000 0.9765 0.2155
vn 0.1267 0.9765 0.1744
vn 0.2050 0.9765 0.0666
vn 0.2050 0.9765 -0.0666
vn 0.1267 0.9765 -0.1744
vn 0.4736 -0.8672 -0.1539
vn -0.0000 -0.8526 -0.5225
vn -0.0000 -0.3608 -0.9326
vn 0.5482 -0.3608 -0.7545
vn 0.3071 -0.8526 -0.4227
vn -0.0000 0.3608 -0.9326
vn -0.0000 0.6125 -0.7905
vn 0.4647 0.6124 -0.6396
vn 0.5482 0.3608 -0.7545
vn 0.0000 -1.0000 0.0000
vn 0.4646 0.6124 0.6396
vn 0.7519 0.6124 0.2443
vn 0.8870 -0.3608 -0.2882
vn 0.4970 -0.8526 -0.1615
vn 0.7519 0.6124 -0.2443
vn 0.8870 0.3608 -0.2882
vn -0.0000 0.6125 0.7905
vn 0.8870 -0.3608 0.2882
vn 0.4970 -0.8526 0.1615
vn 0.8870 0.3608 0.2882
vn -0.4646 0.6125 0.6395
vn 0.5482 -0.3608 0.7545
vn 0.3071 -0.8526 0.4227
vn 0.5482 0.3608 0.7545
vn -0.7517 0.6126 0.2442
vn 0.0000 -0.3608 0.9326
vn 0.0000 -0.8526 0.5225
vn 0.0000 0.3608 0.9326
vn -0.7517 0.6126 -0.2442
vn -0.5482 -0.3608 0.7545
vn -0.3071 -0.8526 0.4227
vn -0.5482 0.3608 0.7545
vn -0.8870 -0.3608 0.2882
vn -0.4970 -0.8526 0.1615
vn -0.8870 0.3608 0.2882
vn -0.8870 -0.3608 -0.2882
vn -0.4970 -0.8526 -0.1615
vn -0.8870 0.3608 -0.2882
vn -0.4646 0.6125 -0.6395
vn -0.5482 -0.3608 -0.7545
vn -0.3071 -0.8526 -0.4227
vn -0.5482 0.3608 -0.7545
usemtl druid
s 1
f 39/1/1 20/2/2 2/3/3 21/4/4
f 25/5/5 6/6/6 8/7/7 27/8/8
f 27/8/8 8/7/7 10/9/9 29/10/10
f 29/11/10 10/12/9 12/13/11 31/14/12
f 31/15/12 12/16/11 14/17/13 33/18/14
f 33/18/14 14/17/13 16/19/15 35/20/16
f 35/20/16 16/19/15 18/21/17 37/22/18
f 7/23/13 9/24/11 61/25/11 60/26/13
f 10/27/19 8/28/20 13/29/20 11/30/19
f 37/22/18 18/21/17 20/2/2 39/1/1
f 23/31/21 4/32/22 6/6/6 25/5/5
f 14/33/23 12/34/24 9/35/24 7/36/23
f 4/37/25 2/38/26 17/39/26 40/40/25
f 22/41/27 24/42/28 45/43/28 44/44/27
f 18/45/29 16/46/30 5/47/30 3/48/29
f 20/49/31 18/45/29 3/48/29 1/50/31
f 5/51/15 7/23/13 60/26/13 52/52/15
f 3/53/17 5/51/15 52/52/15 53/54/17
f 9/55/11 11/56/9 59/57/9 61/58/11
f 11/59/9 13/60/7 58/61/7 59/62/9
f 40/63/22 17/64/3 57/65/3 56/66/22
f 13/60/7 15/67/6 55/68/6 58/61/7
f 15/67/6 40/63/22 56/66/22 55/68/6
f 17/64/3 1/69/2 54/70/2 57/65/3
f 1/69/2 3/53/17 53/54/17 54/70/2
f 19/71/32 54/72/32 53/73/33 22/74/33
f 22/74/33 53/73/33 52/75/34 24/76/34
f 24/76/34 52/75/34 60/77/35 26/78/35
f 26/78/35 60/77/35 61/79/36 28/80/36
f 28/81/36 61/82/36 59/83/37 30/84/37
f 30/85/37 59/86/37 58/87/38 32/88/38
f 32/88/38 58/87/38 55/89/39 34/90/39
f 34/90/39 55/89/39 56/91/40 38/92/40
f 38/92/40 56/91/40 57/93/41 36/94/41
f 38/95/42 36/96/43 42/97/43 51/98/42
f 30/99/44 32/100/45 49/101/45 48/102/44
f 24/42/28 26/103/46 46/104/46 45/43/28
f 36/96/43 19/105/47 43/106/47 42/97/43
f 32/100/45 34/107/48 50/108/48 49/101/45
f 26/103/46 28/109/49 47/110/49 46/104/46
f 19/105/47 22/41/27 44/44/27 43/106/47
f 34/107/48 38/95/42 51/98/42 50/108/48
f 28/109/49 30/99/44 48/102/44 47/110/49
f 41/111/50 42/112/51 43/113/52
f 41/111/50 43/113/52 44/114/53
f 41/111/50 44/114/53 45/115/54
f 41/111/50 45/115/54 46/116/55
f 41/111/50 46/116/55 47/117/56
f 41/111/50 47/117/56 48/118/57
f 41/111/50 48/118/57 49/119/58
f 41/111/50 49/119/58 50/120/59
f 41/111/50 50/120/59 51/121/60
f 41/111/50 51/121/60 42/112/51
f 8/28/20 6/122/61 15/123/61 13/29/20
f 6/122/61 4/37/25 40/40/25 15/123/61
f 16/46/30 14/33/23 7/36/23 5/47/30
f 12/124/24 10/125/19 11/126/19 9/127/24
f 2/38/26 20/49/31 1/50/31 17/39/26
f 36/94/41 57/93/41 54/72/32 19/71/32
f 21/4/4 2/3/3 4/32/22 23/31/21
f 102/128/62 101/129/63 64/130/64 65/131/65
f 100/132/66 99/133/67 62/134/68 63/135/69
f 90/136/70 102/128/62 65/131/65
f 101/129/63 100/132/66 63/135/69 64/130/64
f 74/137/71 70/138/72 27/139/8 29/140/10
f 65/131/65 64/130/64 68/141/73 69/142/74
f 63/135/69 62/134/68 66/143/75 67/144/76
f 90/136/70 65/131/65 69/142/74
f 64/130/64 63/135/69 67/144/76 68/141/73
f 78/145/77 74/146/71 29/147/10 31/148/12
f 69/142/74 68/141/73 72/149/78 73/150/79
f 67/144/76 66/143/75 70/138/72 71/151/80
f 90/136/70 69/142/74 73/150/79
f 68/141/73 67/144/76 71/151/80 72/149/78
f 82/152/81 78/153/77 31/154/12 33/155/14
f 73/150/79 72/149/78 76/156/82 77/157/83
f 71/151/80 70/138/72 74/137/71 75/158/84
f 90/136/70 73/150/79 77/157/83
f 72/149/78 71/151/80 75/158/84 76/156/82
f 86/159/85 82/152/81 33/155/14 35/160/16
f 77/157/83 76/161/82 80/162/86 81/163/87
f 75/164/84 74/146/71 78/145/77 79/165/88
f 90/136/70 77/157/83 81/163/87
f 76/161/82 75/164/84 79/165/88 80/162/86
f 91/166/89 86/159/85 35/160/16 37/167/18
f 81/163/87 80/168/86 84/169/90 85/170/91
f 79/171/88 78/153/77 82/152/81 83/172/92
f 90/136/70 81/163/87 85/170/91
f 80/168/86 79/171/88 83/172/92 84/169/90
f 66/143/75 62/134/68 23/173/21 25/174/5
f 85/170/91 84/169/90 88/175/93 89/176/94
f 83/172/92 82/152/81 86/159/85 87/177/95
f 90/136/70 85/170/91 89/176/94
f 84/169/90 83/172/92 87/177/95 88/175/93
f 62/134/68 99/133/67 21/178/4 23/173/21
f 89/176/94 88/175/93 93/179/96 94/180/97
f 87/177/95 86/159/85 91/166/89 92/181/98
f 90/136/70 89/176/94 94/180/97
f 88/175/93 87/177/95 92/181/98 93/179/96
f 95/182/99 91/166/89 37/167/18 39/183/1
f 94/180/97 93/179/96 97/184/100 98/185/101
f 92/181/98 91/166/89 95/182/99 96/186/102
f 90/136/70 94/180/97 98/185/101
f 93/179/96 92/181/98 96/186/102 97/184/100
f 99/133/67 95/182/99 39/183/1 21/178/4
f 98/185/101 97/184/100 101/129/63 102/128/62
f 96/186/102 95/182/99 99/133/67 100/132/66
f 90/136/70 98/185/101 102/128/62
f 97/184/100 96/186/102 100/132/66 101/129/63
f 70/138/72 66/143/75 25/174/5 27/139/8
