# Blender v3.4.1 OBJ File: 'Adventurers_2.0_Accessories_Export.blend'
# www.blender.org
mtllib turret_base_turret_footA.mtl
o turret_footA
v 0.132148 0.072760 0.285163
v 0.140549 0.092400 0.258603
v 0.313068 0.072760 -0.028199
v 0.294267 0.092400 -0.007644
v 0.098789 0.045788 0.265903
v 0.098186 0.058147 0.234144
v 0.279708 0.045788 -0.047459
v 0.251903 0.058148 -0.032103
v 0.085531 0.001325 0.258248
v 0.081348 0.001684 0.224423
v 0.266450 0.001326 -0.055114
v 0.235066 0.001684 -0.041824
v 0.097437 -0.043644 0.265122
v 0.096469 -0.055424 0.233153
v 0.278356 -0.043644 -0.048240
v 0.250187 -0.055424 -0.033094
v 0.129961 -0.071944 0.283900
v 0.137772 -0.091362 0.256999
v 0.310880 -0.071944 -0.029462
v 0.291489 -0.091362 -0.009248
v 0.170679 -0.072765 0.307408
v 0.189480 -0.092405 0.286853
v 0.351599 -0.072765 -0.005953
v 0.343198 -0.092404 0.020606
v 0.204039 -0.045793 0.326668
v 0.231844 -0.058152 0.311312
v 0.384958 -0.045792 0.013307
v 0.385561 -0.058152 0.045065
v 0.217297 -0.001330 0.334323
v 0.248681 -0.001689 0.321033
v 0.398216 -0.001330 0.020962
v 0.402399 -0.001688 0.054786
v 0.205391 0.043639 0.327449
v 0.233560 0.055419 0.312303
v 0.386310 0.043640 0.014087
v 0.387278 0.055419 0.046056
v 0.172867 0.071939 0.308671
v 0.192258 0.091357 0.288457
v 0.353786 0.071940 -0.004690
v 0.345975 0.091358 0.022210
v 0.332333 -0.000002 -0.017076
v 0.151414 -0.000003 0.296285
v 0.490917 -0.346751 0.207981
v 0.499903 -0.341161 0.236172
v 0.485111 -0.363940 0.234221
v 0.258571 -0.062957 0.323874
v 0.233530 -0.075475 0.334309
v 0.442666 -0.351516 0.180466
v 0.433162 -0.365962 0.204843
v 0.414208 -0.352564 0.187357
v 0.190161 -0.110552 0.309247
v 0.186016 -0.121718 0.281703
v 0.425566 -0.346752 0.321174
v 0.445387 -0.363940 0.303025
v 0.454473 -0.341161 0.314860
v 0.406274 -0.075475 0.035107
v 0.409758 -0.062957 0.062010
v 0.377611 -0.351516 0.293145
v 0.369350 -0.352564 0.265053
v 0.393970 -0.365962 0.272725
v 0.336959 -0.121718 0.020261
v 0.362885 -0.110552 0.010079
v 0.285300 -0.150740 0.349590
v 0.309721 -0.137191 0.339837
v 0.241441 -0.185944 0.323827
v 0.236362 -0.195672 0.296820
v 0.401153 -0.185944 0.047198
v 0.375224 -0.195672 0.056303
v 0.445393 -0.150740 0.072300
v 0.449158 -0.137190 0.098326
v 0.434996 -0.145345 0.155081
v 0.351906 -0.145345 0.298997
v 0.461635 -0.166167 0.175619
v 0.383012 -0.166168 0.311798
v 0.456648 -0.204123 0.178964
v 0.383415 -0.204123 0.305806
v 0.424499 -0.221907 0.162106
v 0.352741 -0.221907 0.286394
v 0.404575 -0.166448 0.139004
v 0.322773 -0.166448 0.280690
v 0.481488 -0.225563 0.197694
v 0.412056 -0.225563 0.317954
v 0.477703 -0.265616 0.196605
v 0.409221 -0.265616 0.315220
v 0.445021 -0.282287 0.179541
v 0.378102 -0.282287 0.295448
v 0.403490 -0.088570 0.131066
v 0.315355 -0.088570 0.283719
v 0.435381 -0.105787 0.148686
v 0.346561 -0.105787 0.302528
v 0.374137 -0.111637 0.115490
v 0.287190 -0.111637 0.266087
v 0.439239 -0.191748 0.253474
v 0.467212 -0.213424 0.269625
v 0.464001 -0.256245 0.267771
v 0.429753 -0.275502 0.247998
v 0.411948 -0.132015 0.237718
v 0.441803 -0.152535 0.254955
v 0.376231 -0.072845 0.217097
v 0.409959 -0.091615 0.236570
v 0.344461 -0.097191 0.198755
vt 0.766911 0.636678
vt 0.843425 0.636678
vt 0.843425 0.641832
vt 0.766911 0.641832
vt 0.766911 0.623182
vt 0.843425 0.623182
vt 0.843425 0.606501
vt 0.766911 0.606501
vt 0.843425 0.593006
vt 0.766911 0.593006
vt 0.843425 0.587851
vt 0.766911 0.587851
vt 0.766911 0.593006
vt 0.843425 0.593006
vt 0.843425 0.606501
vt 0.766911 0.606501
vt 0.843425 0.623182
vt 0.766911 0.623182
vt 0.766911 0.636678
vt 0.843425 0.636678
vt 0.766911 0.665623
vt 0.766911 0.660468
vt 0.763908 0.655827
vt 0.763908 0.659887
vt 0.843425 0.660468
vt 0.843425 0.665623
vt 0.846424 0.659887
vt 0.846424 0.655827
vt 0.766911 0.646973
vt 0.763908 0.645201
vt 0.843425 0.646973
vt 0.846424 0.645201
vt 0.766911 0.630292
vt 0.763908 0.632066
vt 0.843425 0.630292
vt 0.846424 0.632066
vt 0.766911 0.616797
vt 0.763908 0.621438
vt 0.843425 0.616797
vt 0.846424 0.621437
vt 0.766911 0.611642
vt 0.763908 0.617378
vt 0.843425 0.611642
vt 0.846424 0.617377
vt 0.766911 0.616797
vt 0.763908 0.621438
vt 0.843425 0.616797
vt 0.846424 0.621437
vt 0.766911 0.630292
vt 0.763908 0.632066
vt 0.843425 0.630292
vt 0.846424 0.632066
vt 0.766911 0.646973
vt 0.763908 0.645201
vt 0.843425 0.646973
vt 0.846424 0.645201
vt 0.766911 0.660468
vt 0.763908 0.655827
vt 0.843425 0.660468
vt 0.846424 0.655827
vt 0.846424 0.632036
vt 0.846424 0.636096
vt 0.846424 0.614842
vt 0.846424 0.632036
vt 0.846424 0.621410
vt 0.846424 0.608275
vt 0.846424 0.597646
vt 0.846424 0.593586
vt 0.846424 0.597646
vt 0.846424 0.608275
vt 0.846424 0.621410
vt 0.763908 0.636096
vt 0.763908 0.632036
vt 0.763908 0.614842
vt 0.763908 0.621410
vt 0.763908 0.608275
vt 0.763908 0.597647
vt 0.763908 0.593587
vt 0.763908 0.597647
vt 0.763908 0.608275
vt 0.763908 0.621410
vt 0.763908 0.632036
vt 0.422067 0.533047
vt 0.438260 0.533047
vt 0.438365 0.522802
vt 0.421957 0.522802
vt 0.397173 0.598647
vt 0.416722 0.537482
vt 0.416663 0.528690
vt 0.397091 0.598540
vt 0.394481 0.627399
vt 0.394481 0.627398
vt 0.458847 0.589665
vt 0.439431 0.531333
vt 0.420896 0.531333
vt 0.401480 0.589665
vt 0.458966 0.589391
vt 0.461389 0.617948
vt 0.398929 0.617948
vt 0.401357 0.589391
vt 0.463154 0.598647
vt 0.465842 0.627398
vt 0.465846 0.627399
vt 0.463231 0.598540
vt 0.439545 0.516480
vt 0.420778 0.516480
vt 0.398979 0.617948
vt 0.461339 0.617948
vt 0.443664 0.528690
vt 0.443600 0.537482
vt 0.443664 0.552481
vt 0.439545 0.549975
vt 0.438365 0.546593
vt 0.398929 0.651443
vt 0.398335 0.658033
vt 0.394481 0.651190
vt 0.443600 0.561273
vt 0.438260 0.556838
vt 0.439431 0.564828
vt 0.394481 0.651188
vt 0.398335 0.658030
vt 0.398979 0.651443
vt 0.416663 0.552481
vt 0.421957 0.546593
vt 0.420778 0.549975
vt 0.465846 0.651190
vt 0.461983 0.658033
vt 0.461389 0.651443
vt 0.416722 0.561273
vt 0.420896 0.564828
vt 0.422067 0.556838
vt 0.461339 0.651443
vt 0.461988 0.658030
vt 0.465842 0.651188
vt 0.401357 0.622886
vt 0.397091 0.622331
vt 0.401480 0.623160
vt 0.397173 0.622438
vt 0.458966 0.622886
vt 0.463231 0.622331
vt 0.463154 0.622438
vt 0.458847 0.623160
vt 0.425148 0.653401
vt 0.402885 0.653401
vt 0.414047 0.633023
vt 0.436303 0.633023
vt 0.436303 0.601773
vt 0.414047 0.601773
vt 0.414047 0.561024
vt 0.436303 0.561024
vt 0.425148 0.653401
vt 0.402885 0.653401
vt 0.414047 0.633023
vt 0.436303 0.633023
vt 0.436303 0.601773
vt 0.414047 0.601773
vt 0.414047 0.561024
vt 0.436303 0.561024
vt 0.402885 0.540646
vt 0.425148 0.540646
vt 0.425148 0.653401
vt 0.402885 0.653401
vt 0.414047 0.633023
vt 0.436303 0.633023
vt 0.436303 0.601773
vt 0.414047 0.601773
vt 0.414047 0.561024
vt 0.436303 0.561024
vt 0.413986 0.633023
vt 0.391722 0.633023
vt 0.458560 0.561024
vt 0.447411 0.540646
vt 0.458560 0.601773
vt 0.447411 0.653401
vt 0.458560 0.633023
vt 0.458560 0.601773
vt 0.458560 0.561024
vt 0.447411 0.653401
vt 0.458560 0.633023
vt 0.436249 0.633023
vt 0.447411 0.653401
vt 0.458560 0.601773
vt 0.458560 0.561024
vt 0.458560 0.633023
vt 0.402885 0.625347
vt 0.391722 0.573718
vt 0.402885 0.512592
vt 0.414047 0.532970
vt 0.402885 0.625347
vt 0.391722 0.573718
vt 0.402885 0.512592
vt 0.414047 0.532970
vt 0.402885 0.625347
vt 0.391722 0.573718
vt 0.402885 0.512592
vt 0.414047 0.532970
vt 0.447411 0.625347
vt 0.458560 0.573718
vt 0.458560 0.532970
vt 0.447411 0.625347
vt 0.458560 0.573718
vt 0.458560 0.532970
vt 0.447411 0.625347
vt 0.458560 0.573718
vt 0.458560 0.532970
vt 0.414047 0.573718
vt 0.414047 0.573718
vt 0.414047 0.573718
vt 0.436249 0.604968
vt 0.447411 0.512592
vt 0.436249 0.604968
vt 0.447411 0.512592
vt 0.436249 0.604968
vt 0.447411 0.512592
vn 0.2819 0.9455 0.1628
vn -0.2532 0.9563 -0.1462
vn -0.8659 0.0175 -0.4999
vn -0.7094 -0.5736 -0.4096
vn -0.2819 -0.9455 -0.1628
vn -0.0151 -0.9998 -0.0087
vn 0.8188 -0.3256 0.4728
vn 0.8659 -0.0175 0.4999
vn 0.7094 0.5736 0.4096
vn -0.6916 0.6018 -0.3993
vn -0.5034 0.7632 0.4052
vn -0.8533 0.4803 0.2031
vn -0.2507 0.4803 -0.8405
vn 0.0992 0.7632 -0.6385
vn -0.9923 0.0139 0.1228
vn -0.3898 0.0139 -0.9208
vn -0.8674 -0.4578 0.1949
vn -0.2649 -0.4578 -0.8487
vn -0.5263 -0.7546 0.3919
vn 0.0763 -0.7546 -0.6517
vn -0.0992 -0.7632 0.6385
vn 0.5034 -0.7632 -0.4052
vn 0.2507 -0.4803 0.8405
vn 0.8533 -0.4803 -0.2031
vn 0.3898 -0.0139 0.9208
vn 0.9923 -0.0139 -0.1228
vn 0.2649 0.4578 0.8487
vn 0.8674 0.4578 -0.1949
vn -0.0763 0.7546 0.6517
vn 0.5263 0.7546 -0.3919
vn 0.5000 0.0000 -0.8660
vn -0.5000 -0.0000 0.8660
vn -0.2786 -0.9544 0.1074
vn -0.0462 -0.9544 -0.2950
vn 0.5368 -0.8437 0.0066
vn 0.2742 -0.8437 0.4616
vn -0.6112 -0.4352 0.6611
vn -0.4661 -0.6955 0.5469
vn -0.0009 -0.4554 0.8903
vn -0.0823 -0.0253 0.9963
vn -0.4288 -0.1157 0.8960
vn -0.4139 -0.6080 -0.6775
vn -0.4087 -0.7477 -0.5234
vn -0.6576 -0.7477 -0.0922
vn -0.7937 -0.6080 -0.0197
vn 0.9194 0.3883 0.0623
vn 0.6417 0.7662 -0.0346
vn 0.2905 0.7663 0.5731
vn 0.5137 0.3883 0.7651
vn 0.2669 -0.4352 -0.8599
vn 0.5615 -0.1157 -0.8193
vn 0.8217 -0.0253 -0.5694
vn 0.7577 0.4842 0.4375
vn -0.9576 -0.2434 -0.1538
vn -0.6122 -0.2437 -0.7523
vn 0.7706 -0.4554 -0.4460
vn 0.2406 -0.6955 -0.6771
vn 0.9258 -0.3765 0.0328
vn -0.2909 0.8653 0.4082
vn -0.2590 0.6007 0.7563
vn -0.9298 0.0598 0.3633
vn -0.9397 0.3402 0.0340
vn 0.4914 -0.3765 0.7854
vn 0.5266 0.5997 -0.6025
vn 0.2096 0.8645 -0.4569
vn -0.4392 0.3392 -0.8319
vn -0.1494 0.0586 -0.9870
vn 0.4626 0.8454 0.2671
vn 0.3074 0.8128 0.4948
vn 0.8624 -0.0917 0.4979
vn 0.6975 -0.0884 0.7111
vn 0.4997 0.8168 0.2885
vn 0.3204 0.7767 0.5424
vn 0.8622 -0.0942 0.4978
vn 0.6642 -0.0895 0.7422
vn 0.3681 -0.9052 0.2125
vn 0.3518 -0.9047 0.2405
vn 0.3715 0.9033 0.2145
vn 0.2376 0.8758 0.4202
vn 0.8651 0.0459 0.4995
vn 0.7122 0.0445 0.7006
vn -0.4865 0.8273 -0.2809
vn -0.5008 0.8270 -0.2555
vn 0.3841 -0.9047 0.1844
vn 0.9749 -0.0895 0.2041
vn 0.6299 0.7767 0.0063
vn 0.9646 -0.0884 0.2484
vn 0.5822 0.8128 0.0188
vn -0.4717 0.8270 -0.3060
vn 0.9628 0.0445 0.2665
vn 0.4827 0.8758 -0.0043
vn -0.5069 -0.0977 0.8565
vn -0.4846 -0.0800 0.8710
vn -0.4706 -0.1150 0.8748
vn -0.4825 -0.1229 0.8672
vn -0.4795 -0.1145 0.8700
vn -0.4677 -0.1081 0.8773
vn -0.5016 -0.0800 0.8614
vn -0.4801 -0.0687 0.8745
vn 0.4883 -0.0977 -0.8672
vn 0.4153 -0.1491 -0.8974
vn 0.5098 -0.1229 -0.8514
vn 0.5315 -0.1434 -0.8348
vn 0.5259 -0.1081 -0.8437
vn 0.5834 -0.0331 -0.8115
vn 0.5173 -0.0687 -0.8530
vn -0.5695 -0.1491 0.8084
vn -0.4572 -0.1434 0.8777
vn -0.4111 -0.0331 0.9110
vn 0.5120 -0.0800 -0.8552
vn 0.5223 -0.1150 -0.8450
vn 0.5137 -0.1145 -0.8503
vn 0.4952 -0.0800 -0.8651
usemtl engineer
s 1
f 38/1/1 40/2/1 4/3/2 2/4/2
f 10/5/3 12/6/3 16/7/4 14/8/4
f 14/8/4 16/7/4 20/9/5 18/10/5
f 18/10/5 20/9/5 24/11/6 22/12/6
f 26/13/7 28/14/7 32/15/8 30/16/8
f 30/16/8 32/15/8 36/17/9 34/18/9
f 34/18/9 36/17/9 40/2/1 38/1/1
f 6/19/10 8/20/10 12/6/3 10/5/3
f 2/4/2 4/3/2 8/20/10 6/19/10
f 2/21/11 6/22/12 5/23/12 1/24/11
f 8/25/13 4/26/14 3/27/14 7/28/13
f 6/22/12 10/29/15 9/30/15 5/23/12
f 12/31/16 8/25/13 7/28/13 11/32/16
f 10/29/15 14/33/17 13/34/17 9/30/15
f 16/35/18 12/31/16 11/32/16 15/36/18
f 14/33/17 18/37/19 17/38/19 13/34/17
f 20/39/20 16/35/18 15/36/18 19/40/20
f 18/37/19 22/41/21 21/42/21 17/38/19
f 24/43/22 20/39/20 19/40/20 23/44/22
f 22/41/21 26/45/23 25/46/23 21/42/21
f 28/47/24 24/43/22 23/44/22 27/48/24
f 26/45/23 30/49/25 29/50/25 25/46/23
f 32/51/26 28/47/24 27/48/24 31/52/26
f 30/49/25 34/53/27 33/54/27 29/50/25
f 36/55/28 32/51/26 31/52/26 35/56/28
f 34/53/27 38/57/29 37/58/29 33/54/27
f 40/59/30 36/55/28 35/56/28 39/60/30
f 38/57/29 2/21/11 1/24/11 37/58/29
f 4/26/14 40/59/30 39/60/30 3/27/14
f 7/61/31 3/62/31 41/63/31
f 3/62/31 39/64/31 41/63/31
f 39/64/31 35/65/31 41/63/31
f 35/65/31 31/66/31 41/63/31
f 31/66/31 27/67/31 41/63/31
f 27/67/31 23/68/31 41/63/31
f 23/68/31 19/69/31 41/63/31
f 19/69/31 15/70/31 41/63/31
f 15/70/31 11/71/31 41/63/31
f 11/71/31 7/61/31 41/63/31
f 1/72/32 5/73/32 42/74/32
f 5/73/32 9/75/32 42/74/32
f 9/75/32 13/76/32 42/74/32
f 13/76/32 17/77/32 42/74/32
f 17/77/32 21/78/32 42/74/32
f 21/78/32 25/79/32 42/74/32
f 25/79/32 29/80/32 42/74/32
f 29/80/32 33/81/32 42/74/32
f 33/81/32 37/82/32 42/74/32
f 37/82/32 1/72/32 42/74/32
f 60/83/33 49/84/34 45/85/35 54/86/36
f 65/87/37 58/88/38 53/89/39 63/90/40
f 63/90/40 47/91/41 51/92/41 65/87/37
f 68/93/42 50/94/43 59/95/44 66/96/45
f 70/97/46 57/98/47 46/99/48 64/100/49
f 67/101/50 62/102/51 56/103/51 69/104/52
f 44/105/53 70/97/46 64/100/49 55/106/53
f 66/96/45 52/107/54 61/108/55 68/93/42
f 69/104/52 43/109/56 48/110/57 67/101/50
f 43/111/56 44/112/58 45/113/35
f 46/114/48 26/115/59 47/116/60
f 48/117/57 49/118/34 50/119/43
f 51/120/61 22/121/62 52/122/54
f 53/123/39 54/124/36 55/125/63
f 56/126/64 28/127/65 57/128/47
f 58/129/38 59/130/44 60/131/33
f 61/132/55 24/133/66 62/134/67
f 64/135/49 46/114/48 47/116/60 63/136/40
f 26/115/59 22/121/62 51/120/61 47/116/60
f 45/113/35 49/118/34 48/117/57 43/111/56
f 22/121/62 24/133/66 61/132/55 52/122/54
f 60/131/33 54/124/36 53/123/39 58/129/38
f 24/133/66 28/127/65 56/126/64 62/134/67
f 49/118/34 60/131/33 59/130/44 50/119/43
f 28/127/65 26/115/59 46/114/48 57/128/47
f 66/137/45 59/130/44 58/129/38 65/138/37
f 54/124/36 45/113/35 44/112/58 55/125/63
f 70/139/46 44/112/58 43/111/56 69/140/52
f 55/125/63 64/135/49 63/136/40 53/123/39
f 52/122/54 66/137/45 65/138/37 51/120/61
f 62/134/67 67/141/50 68/142/42 61/132/55
f 57/128/47 70/139/46 69/140/52 56/126/64
f 50/119/43 68/142/42 67/141/50 48/117/57
f 97/143/68 72/144/69 74/145/69 98/146/68
f 98/147/70 74/148/71 76/149/71 93/150/70
f 93/151/72 76/152/73 82/153/73 94/154/72
f 94/155/74 82/156/75 84/157/75 95/158/74
f 95/158/76 84/157/77 86/159/77 96/160/76
f 99/161/78 88/162/79 90/163/79 100/164/78
f 100/165/80 90/166/81 72/167/81 97/168/80
f 101/169/82 92/170/83 88/162/83 99/161/82
f 83/171/84 95/158/76 96/160/76 85/172/84
f 81/173/85 94/155/74 95/158/74 83/171/85
f 75/174/86 93/151/72 94/154/72 81/175/86
f 73/176/87 98/147/70 93/150/70 75/177/87
f 71/178/88 97/143/68 98/146/68 73/179/88
f 91/180/89 101/169/82 99/161/82 87/181/89
f 89/182/90 100/165/80 97/168/80 71/183/90
f 87/181/91 99/161/78 100/164/78 89/184/91
f 88/185/92 92/186/93 80/187/94 72/188/95
f 72/189/95 80/190/94 78/191/96 76/192/97
f 76/193/97 78/194/96 86/195/98 84/196/99
f 87/197/100 89/198/101 71/199/102
f 71/200/102 73/201/103 75/202/104
f 75/203/104 81/204/105 83/205/106
f 90/206/107 88/185/92 72/188/95
f 74/207/108 72/189/95 76/192/97
f 82/208/109 76/193/97 84/196/99
f 91/209/110 87/197/100 71/199/102 79/210/111
f 79/211/111 71/200/102 75/202/104 77/212/112
f 77/213/112 75/203/104 83/205/106 85/214/113
