# Blender v3.4.1 OBJ File: 'Adventurers_2.0_Accessories_Export.blend'
# www.blender.org
mtllib turret_base.mtl
o turret_base
v 0.352425 0.030971 0.005340
v 0.329319 0.044192 0.006313
v 0.296094 -0.000000 0.007784
v 0.329319 -0.044192 0.006313
v 0.352425 -0.030971 0.005340
v 0.330550 0.031032 -0.117955
v 0.308793 0.044193 -0.110036
v 0.277456 -0.000000 -0.098630
v 0.308793 -0.044193 -0.110036
v 0.330550 -0.031032 -0.117955
v 0.267427 0.031032 -0.227287
v 0.249690 0.044193 -0.212404
v 0.224144 -0.000000 -0.190969
v 0.249690 -0.044193 -0.212404
v 0.267427 -0.031032 -0.227287
v 0.171587 0.030971 -0.307879
v 0.159192 0.044192 -0.288354
v 0.141306 -0.000000 -0.260317
v 0.159192 -0.044192 -0.288354
v 0.171587 -0.030971 -0.307879
v -0.171587 0.030971 -0.307879
v -0.159192 0.044192 -0.288354
v -0.141306 -0.000000 -0.260317
v -0.159192 -0.044192 -0.288354
v -0.171587 -0.030971 -0.307879
v -0.267427 0.031032 -0.227287
v -0.249690 0.044193 -0.212404
v -0.224144 -0.000000 -0.190969
v -0.249690 -0.044193 -0.212404
v -0.267427 -0.031032 -0.227287
v -0.330550 0.031032 -0.117955
v -0.308792 0.044193 -0.110036
v -0.277456 -0.000000 -0.098630
v -0.308792 -0.044193 -0.110036
v -0.330550 -0.031032 -0.117955
v -0.352424 0.030971 0.005340
v -0.329318 0.044192 0.006313
v -0.296094 -0.000000 0.007784
v -0.329318 -0.044192 0.006313
v -0.352424 -0.030971 0.005340
v -0.180837 0.030971 0.302538
v -0.170126 0.044192 0.282042
v -0.154788 -0.000000 0.252533
v -0.170126 -0.044193 0.282042
v -0.180837 -0.030971 0.302538
v -0.063123 0.031032 0.345242
v -0.059102 0.044193 0.322440
v -0.053312 -0.000000 0.289599
v -0.059102 -0.044193 0.322440
v -0.063123 -0.031032 0.345242
v 0.063123 0.031032 0.345242
v 0.059103 0.044193 0.322440
v 0.053312 -0.000000 0.289599
v 0.059103 -0.044193 0.322440
v 0.063123 -0.031032 0.345242
v 0.180837 0.030971 0.302538
v 0.170126 0.044192 0.282042
v 0.154789 -0.000000 0.252533
v 0.170126 -0.044193 0.282042
v 0.180837 -0.030971 0.302538
v 0.000016 0.077574 -0.234825
v 0.000016 0.222115 -0.234825
v 0.138043 0.077574 -0.189977
v 0.138043 0.222115 -0.189977
v 0.223348 0.077574 -0.072565
v 0.223348 0.222115 -0.072564
v 0.223348 0.077574 0.072566
v 0.223348 0.222115 0.072566
v 0.138043 0.077574 0.189979
v 0.138043 0.222115 0.189979
v 0.000016 0.077574 0.234826
v 0.000016 0.222115 0.234826
v -0.138011 0.077574 0.189978
v -0.138011 0.222115 0.189978
v -0.223316 0.077574 0.072566
v -0.223316 0.222115 0.072566
v -0.223316 0.077574 -0.072565
v -0.223316 0.222115 -0.072565
v -0.138011 0.077574 -0.189977
v -0.138011 0.222115 -0.189977
v 0.035925 0.105143 -0.283622
v 0.035925 0.222115 -0.283622
v 0.137682 0.105143 -0.250559
v 0.137682 0.222115 -0.250559
v 0.195777 0.222115 -0.208350
v 0.195777 0.105143 -0.208350
v 0.258666 0.105143 -0.121791
v 0.258666 0.222115 -0.121791
v 0.280856 0.222115 -0.053496
v 0.280856 0.105143 -0.053496
v 0.280856 0.105143 0.053497
v 0.280856 0.222115 0.053497
v 0.258666 0.222115 0.121792
v 0.258666 0.105143 0.121792
v 0.195777 0.105143 0.208352
v 0.195777 0.222115 0.208352
v 0.137682 0.222115 0.250560
v 0.137682 0.105143 0.250560
v 0.035925 0.105143 0.283623
v 0.035925 0.222115 0.283623
v -0.035885 0.222115 0.283623
v -0.035885 0.105143 0.283623
v -0.137641 0.105143 0.250560
v -0.137641 0.222115 0.250560
v -0.195736 0.222115 0.208352
v -0.195736 0.105143 0.208352
v -0.258626 0.105143 0.121792
v -0.258626 0.222115 0.121792
v -0.280816 0.222115 0.053497
v -0.280816 0.105143 0.053497
v -0.280816 0.105143 -0.053496
v -0.280816 0.222115 -0.053496
v -0.258626 0.222115 -0.121791
v -0.258626 0.105143 -0.121791
v -0.195736 0.105143 -0.208350
v -0.195736 0.222115 -0.208350
v -0.137641 0.222115 -0.250559
v -0.137641 0.105143 -0.250559
v -0.035885 0.105143 -0.283622
v -0.035885 0.222115 -0.283622
v 0.000016 0.222115 0.000001
v 0.000016 0.077574 0.000001
v -0.000002 -0.062409 -0.000056
v -0.128472 0.096662 0.128413
v -0.128472 0.002292 0.128412
v 0.128463 0.002291 0.128412
v 0.128463 0.096662 0.128412
v 0.128463 0.002292 -0.128523
v 0.128463 0.096662 -0.128523
v -0.128472 0.002292 -0.128523
v -0.128472 0.096662 -0.128523
v -0.181685 0.096662 -0.000055
v -0.181685 0.002292 -0.000055
v -0.000005 0.002291 0.181626
v -0.000005 0.096662 0.181626
v 0.181676 0.002291 -0.000055
v 0.181676 0.096662 -0.000055
v -0.000005 0.002292 -0.181736
v -0.000005 0.096662 -0.181736
v 0.058013 0.096662 -0.140115
v -0.058016 0.096662 -0.140115
v 0.140057 0.096662 0.057959
v 0.140057 0.096662 -0.058070
v -0.140061 0.096662 -0.058070
v -0.140061 0.096662 0.057959
v -0.058016 0.096662 0.140004
v 0.058013 0.096662 0.140004
v -0.058016 -0.062410 0.140004
v -0.140061 -0.062409 0.057959
v 0.140057 -0.062409 -0.058070
v 0.140057 -0.062410 0.057959
v 0.058012 -0.062409 -0.140115
v 0.058013 -0.062410 0.140004
v -0.058016 -0.062409 -0.140115
v -0.140061 -0.062409 -0.058070
vt 0.433174 0.581830
vt 0.438447 0.592011
vt 0.453378 0.592011
vt 0.453433 0.581830
vt 0.453433 0.519330
vt 0.453378 0.576386
vt 0.453378 0.619572
vt 0.453433 0.572697
vt 0.453433 0.619572
vt 0.461907 0.619572
vt 0.461907 0.576386
vt 0.453433 0.566205
vt 0.453433 0.666447
vt 0.453378 0.666447
vt 0.438447 0.666447
vt 0.433174 0.666447
vt 0.461907 0.592011
vt 0.471136 0.592011
vt 0.465951 0.581830
vt 0.465951 0.566205
vt 0.471136 0.529511
vt 0.471136 0.572697
vt 0.465951 0.619572
vt 0.474392 0.619572
vt 0.474392 0.576386
vt 0.465951 0.666447
vt 0.471136 0.666447
vt 0.461907 0.666447
vt 0.474392 0.592011
vt 0.474392 0.592011
vt 0.465951 0.581830
vt 0.465951 0.519330
vt 0.474392 0.576386
vt 0.474392 0.619572
vt 0.465951 0.572697
vt 0.465951 0.619572
vt 0.471136 0.619572
vt 0.471136 0.576386
vt 0.465951 0.566205
vt 0.465951 0.666447
vt 0.474392 0.666447
vt 0.474392 0.666447
vt 0.471136 0.592011
vt 0.461907 0.592011
vt 0.453433 0.581830
vt 0.453433 0.519330
vt 0.461907 0.576386
vt 0.461907 0.619572
vt 0.453433 0.572697
vt 0.453433 0.619572
vt 0.453378 0.619572
vt 0.453378 0.576386
vt 0.453433 0.566205
vt 0.453433 0.666447
vt 0.461907 0.666447
vt 0.471136 0.666447
vt 0.453378 0.592011
vt 0.438447 0.592011
vt 0.433174 0.581830
vt 0.433174 0.519330
vt 0.438447 0.576386
vt 0.438447 0.619572
vt 0.433174 0.572697
vt 0.433174 0.619572
vt 0.427901 0.619572
vt 0.427901 0.576386
vt 0.433174 0.566205
vt 0.433174 0.666447
vt 0.438447 0.666447
vt 0.453378 0.666447
vt 0.427901 0.592011
vt 0.412964 0.592011
vt 0.412915 0.581830
vt 0.412915 0.519330
vt 0.412964 0.576386
vt 0.412964 0.619572
vt 0.412915 0.572697
vt 0.412915 0.619572
vt 0.404441 0.619572
vt 0.404441 0.576386
vt 0.412915 0.566205
vt 0.412915 0.666447
vt 0.412964 0.666447
vt 0.427901 0.666447
vt 0.404441 0.592011
vt 0.395206 0.592011
vt 0.400391 0.581830
vt 0.400391 0.519330
vt 0.395206 0.576386
vt 0.395206 0.619572
vt 0.400391 0.572697
vt 0.400391 0.619572
vt 0.391950 0.619572
vt 0.391950 0.576386
vt 0.400391 0.566205
vt 0.400391 0.666447
vt 0.395206 0.666447
vt 0.404441 0.666447
vt 0.391950 0.592011
vt 0.391950 0.592011
vt 0.400391 0.581830
vt 0.400391 0.519330
vt 0.391950 0.576386
vt 0.391950 0.619572
vt 0.400391 0.572697
vt 0.400391 0.619572
vt 0.395206 0.619572
vt 0.395206 0.576386
vt 0.400391 0.566205
vt 0.400391 0.666447
vt 0.391950 0.666447
vt 0.391950 0.666447
vt 0.395206 0.592011
vt 0.404441 0.592011
vt 0.412915 0.581830
vt 0.412915 0.519330
vt 0.404441 0.576386
vt 0.404441 0.619572
vt 0.412915 0.572697
vt 0.412915 0.619572
vt 0.412964 0.619572
vt 0.412964 0.576386
vt 0.412915 0.566205
vt 0.412915 0.666447
vt 0.404441 0.666447
vt 0.395206 0.666447
vt 0.412964 0.592011
vt 0.427901 0.592011
vt 0.433174 0.519330
vt 0.427901 0.576386
vt 0.427901 0.619572
vt 0.433174 0.572697
vt 0.427901 0.666447
vt 0.412964 0.666447
vt 0.438447 0.607636
vt 0.438447 0.650822
vt 0.453378 0.650822
vt 0.453378 0.607636
vt 0.461907 0.607636
vt 0.461907 0.650822
vt 0.471136 0.650822
vt 0.471136 0.607636
vt 0.474392 0.607636
vt 0.474392 0.650822
vt 0.474392 0.650822
vt 0.474392 0.607636
vt 0.471136 0.607636
vt 0.471136 0.650822
vt 0.461907 0.650822
vt 0.461907 0.607636
vt 0.453378 0.607636
vt 0.453378 0.650822
vt 0.438447 0.650822
vt 0.438447 0.607636
vt 0.427901 0.607636
vt 0.427901 0.650822
vt 0.412964 0.650822
vt 0.412964 0.607636
vt 0.404441 0.607636
vt 0.404441 0.650822
vt 0.395206 0.650822
vt 0.395206 0.607636
vt 0.391950 0.607636
vt 0.391950 0.650822
vt 0.391950 0.650822
vt 0.391950 0.607636
vt 0.395206 0.607636
vt 0.395206 0.650822
vt 0.404441 0.650822
vt 0.404441 0.607636
vt 0.412964 0.607636
vt 0.412964 0.650822
vt 0.427901 0.650822
vt 0.427901 0.607636
vt 0.433174 0.619572
vt 0.438447 0.619572
vt 0.438447 0.576386
vt 0.433174 0.566205
vt 0.453433 0.650822
vt 0.433174 0.650822
vt 0.433174 0.650822
vt 0.412915 0.650822
vt 0.400391 0.650822
vt 0.400391 0.650822
vt 0.412915 0.650822
vt 0.433174 0.650822
vt 0.453433 0.650822
vt 0.465951 0.650822
vt 0.465951 0.650822
vt 0.433174 0.566205
vt 0.464277 0.540020
vt 0.457590 0.540020
vt 0.457590 0.586089
vt 0.464277 0.586089
vt 0.466593 0.601684
vt 0.464277 0.617339
vt 0.461970 0.608170
vt 0.464145 0.608170
vt 0.455708 0.576920
vt 0.453002 0.555241
vt 0.458651 0.555241
vt 0.461970 0.576920
vt 0.455708 0.533564
vt 0.461970 0.533564
vt 0.464145 0.517939
vt 0.461970 0.517939
vt 0.464277 0.524395
vt 0.466593 0.524425
vt 0.447436 0.540050
vt 0.447436 0.570434
vt 0.457590 0.617339
vt 0.455708 0.608170
vt 0.446121 0.576920
vt 0.444229 0.555241
vt 0.446121 0.533564
vt 0.455708 0.517939
vt 0.457590 0.524395
vt 0.411078 0.540050
vt 0.400924 0.540020
vt 0.400924 0.586089
vt 0.411078 0.570434
vt 0.447436 0.601684
vt 0.446121 0.608170
vt 0.402803 0.576920
vt 0.405512 0.555241
vt 0.414285 0.555241
vt 0.412390 0.576920
vt 0.402803 0.533564
vt 0.412390 0.533564
vt 0.446121 0.517939
vt 0.447436 0.524425
vt 0.394237 0.540020
vt 0.394237 0.586089
vt 0.411078 0.601684
vt 0.400924 0.617339
vt 0.402803 0.608170
vt 0.412390 0.608170
vt 0.396541 0.576920
vt 0.399860 0.555241
vt 0.396541 0.533564
vt 0.412390 0.517939
vt 0.402803 0.517939
vt 0.400924 0.524395
vt 0.411078 0.524425
vt 0.391920 0.540050
vt 0.391920 0.570434
vt 0.394237 0.617339
vt 0.396541 0.608170
vt 0.394366 0.576920
vt 0.397886 0.555241
vt 0.394366 0.533564
vt 0.396541 0.517939
vt 0.394237 0.524395
vt 0.410096 0.540050
vt 0.422570 0.540020
vt 0.422570 0.586089
vt 0.410096 0.570434
vt 0.391920 0.601684
vt 0.394366 0.608170
vt 0.422995 0.576920
vt 0.423608 0.555241
vt 0.412858 0.555241
vt 0.411233 0.576920
vt 0.422995 0.533564
vt 0.411233 0.533564
vt 0.394366 0.517939
vt 0.391920 0.524425
vt 0.435944 0.540020
vt 0.435944 0.586089
vt 0.410096 0.601684
vt 0.422570 0.617339
vt 0.422995 0.608170
vt 0.411233 0.608170
vt 0.435519 0.576920
vt 0.434906 0.555241
vt 0.435519 0.533564
vt 0.411233 0.517939
vt 0.422995 0.517939
vt 0.422570 0.524395
vt 0.410096 0.524425
vt 0.448418 0.540050
vt 0.448418 0.570434
vt 0.435944 0.617339
vt 0.435519 0.608170
vt 0.447281 0.576920
vt 0.445656 0.555241
vt 0.447281 0.533564
vt 0.435519 0.517939
vt 0.435944 0.524395
vt 0.448418 0.601684
vt 0.447281 0.608170
vt 0.460628 0.555241
vt 0.464145 0.576920
vt 0.447281 0.517939
vt 0.448418 0.524425
vt 0.464145 0.533564
vt 0.466593 0.540050
vt 0.466593 0.570434
vt 0.464145 0.510289
vt 0.464145 0.537696
vt 0.460628 0.523992
vt 0.447281 0.510289
vt 0.445656 0.523992
vt 0.447281 0.537696
vt 0.412390 0.510289
vt 0.412390 0.537696
vt 0.414285 0.523992
vt 0.446121 0.510289
vt 0.444229 0.523992
vt 0.446121 0.537696
vt 0.411233 0.510289
vt 0.411233 0.537696
vt 0.412858 0.523992
vt 0.394366 0.510289
vt 0.397886 0.523992
vt 0.394366 0.537696
vt 0.410096 0.514389
vt 0.410096 0.533595
vt 0.391920 0.514389
vt 0.391920 0.533595
vt 0.466593 0.514389
vt 0.466593 0.533595
vt 0.448418 0.514389
vt 0.448418 0.533595
vt 0.411078 0.514389
vt 0.411078 0.533595
vt 0.447436 0.514389
vt 0.447436 0.533595
vt 0.573951 0.631895
vt 0.559638 0.617583
vt 0.571927 0.619605
vt 0.539396 0.617583
vt 0.525086 0.631895
vt 0.527108 0.619605
vt 0.539396 0.709596
vt 0.539396 0.709596
vt 0.527108 0.707575
vt 0.527108 0.707575
vt 0.525086 0.675046
vt 0.525086 0.675046
vt 0.527108 0.662756
vt 0.527108 0.662756
vt 0.573951 0.675046
vt 0.573951 0.675046
vt 0.571927 0.662756
vt 0.571927 0.662756
vt 0.559638 0.660733
vt 0.559638 0.660733
vt 0.559638 0.709596
vt 0.559638 0.709596
vt 0.571927 0.707575
vt 0.571927 0.707575
vt 0.525086 0.695285
vt 0.525086 0.695285
vt 0.559638 0.666446
vt 0.573951 0.652134
vt 0.571927 0.664424
vt 0.539396 0.660733
vt 0.539396 0.660733
vt 0.573951 0.695285
vt 0.573951 0.695285
vt 0.525086 0.652134
vt 0.539396 0.666446
vt 0.527108 0.664424
vt 0.549517 0.716857
vt 0.549517 0.716857
vt 0.549517 0.653474
vt 0.549517 0.653474
vt 0.549517 0.673706
vt 0.549517 0.610323
vt 0.517824 0.685165
vt 0.517824 0.685165
vt 0.581209 0.685165
vt 0.581209 0.685165
vt 0.517824 0.642014
vt 0.581209 0.642014
vt 0.557640 0.622406
vt 0.529909 0.650137
vt 0.541395 0.661623
vt 0.541395 0.622406
vt 0.529909 0.633892
vt 0.557640 0.661623
vt 0.569128 0.650137
vt 0.569128 0.633892
vn 0.1336 -0.9017 -0.4111
vn 1.0000 0.0000 -0.0060
vn -0.3033 0.0000 -0.9529
vn 0.0000 1.0000 -0.0000
vn 0.3497 -0.9017 -0.2541
vn 0.8125 -0.0000 0.5829
vn 0.3147 0.0000 -0.9492
vn 0.4323 -0.9017 0.0000
vn 0.3147 -0.0000 0.9492
vn 0.8125 0.0000 -0.5829
vn 0.3497 -0.9017 0.2541
vn -0.3033 -0.0000 0.9529
vn 1.0000 0.0000 0.0060
vn 0.1336 -0.9017 0.4111
vn -0.8054 -0.0000 0.5927
vn 0.8055 -0.0000 0.5926
vn -0.1336 -0.9017 0.4112
vn -1.0000 0.0000 0.0061
vn 0.3033 -0.0000 0.9529
vn -0.3498 -0.9017 0.2541
vn -0.8126 0.0000 -0.5828
vn -0.3148 -0.0000 0.9492
vn -0.4323 -0.9017 -0.0000
vn -0.3148 0.0000 -0.9492
vn -0.8126 -0.0000 0.5828
vn -0.3498 -0.9017 -0.2541
vn 0.3033 0.0000 -0.9529
vn -1.0000 0.0000 -0.0061
vn -0.1336 -0.9017 -0.4112
vn 0.8055 0.0000 -0.5926
vn 0.3090 0.0000 -0.9511
vn 0.8090 0.0000 -0.5878
vn 1.0000 0.0000 0.0000
vn 0.8090 -0.0000 0.5878
vn 0.3090 -0.0000 0.9511
vn -0.3090 -0.0000 0.9511
vn -0.8090 -0.0000 0.5878
vn -1.0000 -0.0000 0.0000
vn -0.8090 0.0000 -0.5878
vn -0.3090 0.0000 -0.9511
vn -0.8054 0.0000 -0.5927
vn -0.0000 -1.0000 0.0000
vn 0.9395 0.0000 -0.3425
vn 0.7664 0.0000 -0.6424
vn 0.4921 0.8662 -0.0869
vn 0.4643 0.8694 -0.1690
vn -0.6112 0.6028 0.5130
vn -0.6111 0.6028 0.5130
vn -0.7499 0.6028 0.2727
vn -0.7499 0.6028 0.2728
vn -0.6111 -0.6028 0.5130
vn -0.6112 -0.6028 0.5130
vn -0.7499 -0.6028 0.2728
vn -0.7499 -0.6028 0.2727
vn 0.4921 -0.8662 -0.0869
vn 0.4643 -0.8694 -0.1690
vn 0.6436 0.0000 -0.7654
vn 0.3785 0.8694 -0.3176
vn -0.5152 0.5972 0.6147
vn -0.5152 -0.5972 0.6147
vn 0.3785 -0.8694 -0.3176
vn -0.6436 0.0000 -0.7654
vn -0.7664 0.0000 -0.6424
vn 0.3213 0.8662 -0.3828
vn 0.6112 0.6027 0.5130
vn 0.6111 0.6028 0.5130
vn 0.5152 0.5972 0.6147
vn 0.6111 -0.6028 0.5130
vn 0.6112 -0.6028 0.5130
vn 0.5152 -0.5972 0.6147
vn 0.3213 -0.8662 -0.3828
vn -0.9395 0.0000 -0.3425
vn -0.3213 0.8662 -0.3828
vn -0.3785 0.8694 -0.3176
vn 0.7499 0.6028 0.2728
vn 0.7499 0.6028 0.2727
vn 0.7499 -0.6028 0.2727
vn 0.7499 -0.6028 0.2728
vn -0.3213 -0.8662 -0.3828
vn -0.3785 -0.8694 -0.3176
vn -0.9846 0.0000 -0.1747
vn -0.4643 0.8694 -0.1690
vn 0.7899 0.5972 0.1389
vn 0.7899 -0.5972 0.1389
vn -0.4643 -0.8694 -0.1690
vn -0.3410 0.0000 0.9401
vn -0.1731 0.0000 0.9849
vn -0.4921 0.8662 -0.0869
vn 0.1387 0.6028 -0.7858
vn 0.2747 0.5972 -0.7536
vn 0.1387 -0.6028 -0.7858
vn 0.2747 -0.5972 -0.7536
vn -0.4921 -0.8662 -0.0869
vn 0.1731 0.0000 0.9849
vn -0.1709 0.8662 0.4696
vn -0.0858 0.8694 0.4866
vn -0.0857 0.8694 0.4866
vn -0.1387 0.6028 -0.7858
vn -0.1387 -0.6028 -0.7858
vn -0.1709 -0.8662 0.4696
vn -0.0857 -0.8694 0.4866
vn -0.0858 -0.8694 0.4866
vn 0.3410 0.0000 0.9401
vn 0.0858 0.8694 0.4866
vn 0.0857 0.8694 0.4866
vn -0.2747 0.5972 -0.7536
vn -0.2747 -0.5972 -0.7536
vn 0.0857 -0.8694 0.4866
vn 0.0858 -0.8694 0.4866
vn 0.1709 0.8662 0.4696
vn -0.7899 0.5972 0.1389
vn 0.1709 -0.8662 0.4696
vn -0.7899 -0.5972 0.1389
vn 0.9846 0.0000 -0.1747
vn 0.0429 -0.0000 0.9991
vn 0.0442 -0.0000 0.9990
vn 0.8867 0.0000 -0.4624
vn 0.8873 0.0000 -0.4612
vn 0.8438 0.0000 -0.5367
vn 0.8431 0.0000 -0.5378
vn -0.8438 0.0000 -0.5367
vn -0.8431 0.0000 -0.5378
vn -0.8867 0.0000 -0.4624
vn -0.8873 0.0000 -0.4612
vn -0.0429 -0.0000 0.9991
vn -0.0442 -0.0000 0.9990
vn -0.8863 0.0000 -0.4631
vn -0.0420 -0.0000 0.9991
vn 0.0420 -0.0000 0.9991
vn 0.8863 0.0000 -0.4631
vn 0.8442 0.0000 -0.5360
vn -0.8442 0.0000 -0.5360
vn -0.5947 -0.5410 0.5947
vn 0.5947 -0.5410 0.5947
vn 0.1624 0.0000 -0.9867
vn 0.9867 -0.0000 0.1624
vn -0.9867 0.0000 0.1623
vn -0.1623 -0.0000 0.9867
vn -0.1623 0.0000 -0.9867
vn 0.9867 -0.0000 -0.1624
vn -0.5947 -0.5410 -0.5947
vn 0.1623 -0.0000 0.9867
vn -0.9867 0.0000 -0.1623
vn 0.5947 -0.5410 -0.5947
vn -0.5829 0.0000 -0.8125
vn 0.5829 -0.0000 0.8125
vn -0.0000 -0.5410 -0.8410
vn -0.0000 -0.5410 0.8410
vn -0.8125 0.0000 -0.5830
vn 0.8410 -0.5410 -0.0000
vn -0.8125 0.0000 0.5830
vn -0.8410 -0.5410 -0.0000
vn -0.5830 -0.0000 0.8125
vn 0.5829 0.0000 -0.8125
usemtl engineer
s off
f 61/1/1 81/2/1 83/3/1 63/4/1
f 63/5/2 83/6/2 84/7/2 64/8/2
f 64/9/3 85/10/3 86/11/3 63/12/3
f 64/13/4 84/14/4 82/15/4 62/16/4
f 63/4/5 86/17/5 87/18/5 65/19/5
f 65/20/6 87/21/6 88/22/6 66/23/6
f 66/23/7 89/24/7 90/25/7 65/20/7
f 66/26/4 88/27/4 85/28/4 64/13/4
f 65/19/8 90/29/8 91/30/8 67/31/8
f 67/32/9 91/33/9 92/34/9 68/35/9
f 68/36/10 93/37/10 94/38/10 67/39/10
f 68/40/4 92/41/4 89/42/4 66/26/4
f 67/31/11 94/43/11 95/44/11 69/45/11
f 69/46/12 95/47/12 96/48/12 70/49/12
f 70/50/13 97/51/13 98/52/13 69/53/13
f 70/54/4 96/55/4 93/56/4 68/40/4
f 69/45/14 98/57/14 99/58/14 71/59/14
f 71/60/15 99/61/15 100/62/15 72/63/15
f 72/64/16 101/65/16 102/66/16 71/67/16
f 72/68/4 100/69/4 97/70/4 70/54/4
f 71/59/17 102/71/17 103/72/17 73/73/17
f 73/74/18 103/75/18 104/76/18 74/77/18
f 74/78/19 105/79/19 106/80/19 73/81/19
f 74/82/4 104/83/4 101/84/4 72/68/4
f 73/73/20 106/85/20 107/86/20 75/87/20
f 75/88/21 107/89/21 108/90/21 76/91/21
f 76/92/22 109/93/22 110/94/22 75/95/22
f 76/96/4 108/97/4 105/98/4 74/82/4
f 75/87/23 110/99/23 111/100/23 77/101/23
f 77/102/24 111/103/24 112/104/24 78/105/24
f 78/106/25 113/107/25 114/108/25 77/109/25
f 78/110/4 112/111/4 109/112/4 76/96/4
f 77/101/26 114/113/26 115/114/26 79/115/26
f 79/116/27 115/117/27 116/118/27 80/119/27
f 80/120/28 117/121/28 118/122/28 79/123/28
f 80/124/4 116/125/4 113/126/4 78/110/4
f 79/115/29 118/127/29 119/128/29 61/1/29
f 61/129/30 119/130/30 120/131/30 62/132/30
f 62/16/4 120/133/4 117/134/4 80/124/4
f 81/135/31 82/136/31 84/137/31 83/138/31
f 86/139/32 85/140/32 88/141/32 87/142/32
f 90/143/33 89/144/33 92/145/33 91/146/33
f 94/147/34 93/148/34 96/149/34 95/150/34
f 98/151/35 97/152/35 100/153/35 99/154/35
f 102/155/36 101/156/36 104/157/36 103/158/36
f 106/159/37 105/160/37 108/161/37 107/162/37
f 110/163/38 109/164/38 112/165/38 111/166/38
f 114/167/39 113/168/39 116/169/39 115/170/39
f 118/171/40 117/172/40 120/173/40 119/174/40
f 62/175/41 82/176/41 81/177/41 61/178/41
f 64/179/4 62/180/4 121/181/4
f 62/180/4 80/182/4 121/181/4
f 80/182/4 78/183/4 121/181/4
f 78/183/4 76/184/4 121/181/4
f 76/184/4 74/185/4 121/181/4
f 74/185/4 72/186/4 121/181/4
f 72/186/4 70/187/4 121/181/4
f 70/187/4 68/188/4 121/181/4
f 68/188/4 66/189/4 121/181/4
f 66/189/4 64/179/4 121/181/4
f 61/178/42 63/12/42 122/190/42
f 63/12/42 65/20/42 122/190/42
f 65/20/42 67/39/42 122/190/42
f 67/39/42 69/53/42 122/190/42
f 69/53/42 71/67/42 122/190/42
f 71/67/42 73/81/42 122/190/42
f 73/81/42 75/95/42 122/190/42
f 75/95/42 77/109/42 122/190/42
f 77/109/42 79/123/42 122/190/42
f 79/123/42 61/178/42 122/190/42
s 1
f 10/191/43 15/192/44 11/193/44 6/194/43
f 1/195/45 6/196/46 7/197/46 2/198/45
f 12/199/47 13/200/48 8/201/49 7/202/50
f 13/200/51 14/203/52 9/204/53 8/201/54
f 4/205/55 9/206/56 10/207/56 5/208/55
f 15/192/44 20/209/57 16/210/57 11/193/44
f 6/196/46 11/211/58 12/212/58 7/197/46
f 17/213/59 18/214/59 13/200/48 12/199/47
f 18/214/60 19/215/60 14/203/52 13/200/51
f 9/206/56 14/216/61 15/217/61 10/207/56
f 25/218/62 30/219/63 26/220/63 21/221/62
f 11/211/58 16/222/64 17/223/64 12/212/58
f 27/224/65 28/225/66 23/226/67 22/227/67
f 28/225/68 29/228/69 24/229/70 23/226/70
f 14/216/61 19/230/71 20/231/71 15/217/61
f 30/219/63 35/232/72 31/233/72 26/220/63
f 21/234/73 26/235/74 27/236/74 22/237/73
f 32/238/75 33/239/76 28/225/66 27/224/65
f 33/239/77 34/240/78 29/228/69 28/225/68
f 24/241/79 29/242/80 30/243/80 25/244/79
f 35/232/72 40/245/81 36/246/81 31/233/72
f 26/235/74 31/247/82 32/248/82 27/236/74
f 37/249/83 38/250/83 33/239/76 32/238/75
f 38/250/84 39/251/84 34/240/78 33/239/77
f 29/242/80 34/252/85 35/253/85 30/243/80
f 45/254/86 50/255/87 46/256/87 41/257/86
f 31/247/82 36/258/88 37/259/88 32/248/82
f 47/260/89 48/261/89 43/262/90 42/263/90
f 48/261/91 49/264/91 44/265/92 43/262/92
f 34/252/85 39/266/93 40/267/93 35/253/85
f 50/255/87 55/268/94 51/269/94 46/256/87
f 41/270/95 46/271/96 47/272/97 42/273/95
f 52/274/98 53/275/98 48/261/89 47/260/89
f 53/275/99 54/276/99 49/264/91 48/261/91
f 44/277/100 49/278/101 50/279/102 45/280/100
f 55/268/94 60/281/103 56/282/103 51/269/94
f 46/271/96 51/283/104 52/284/105 47/272/97
f 57/285/106 58/286/106 53/275/98 52/274/98
f 58/286/107 59/287/107 54/276/99 53/275/99
f 49/278/101 54/288/108 55/289/109 50/279/102
f 51/283/104 56/290/110 57/291/110 52/284/105
f 7/202/50 8/201/49 3/292/111 2/293/111
f 54/288/108 59/294/112 60/295/112 55/289/109
f 8/201/54 9/204/53 4/296/113 3/292/113
f 5/297/114 10/191/43 6/194/43 1/298/114
f 4/299/115 2/300/115 3/301/116
f 59/302/117 58/303/118 57/304/117
f 24/305/119 22/306/119 23/307/120
f 19/308/121 18/309/122 17/310/121
f 44/311/123 42/312/123 43/313/124
f 39/314/125 38/315/126 37/316/125
f 45/317/127 41/318/127 42/312/123 44/311/123
f 40/319/128 39/314/125 37/316/125 36/320/128
f 5/321/129 1/322/129 2/300/115 4/299/115
f 60/323/130 59/302/117 57/304/117 56/324/130
f 25/325/131 21/326/131 22/306/119 24/305/119
f 20/327/132 19/308/121 17/310/121 16/328/132
f 149/329/133 148/330/133 125/331/133
f 153/332/134 151/333/134 126/334/134
f 152/335/135 140/336/135 129/337/135 128/338/135
f 151/339/136 142/340/136 127/341/136 126/342/136
f 145/343/137 149/344/137 125/345/137 124/346/137
f 148/347/138 146/348/138 124/346/138 125/345/138
f 141/349/139 154/350/139 130/351/139 131/352/139
f 143/353/140 150/354/140 128/338/140 129/337/140
f 154/355/141 155/356/141 130/357/141
f 147/358/142 153/359/142 126/342/142 127/341/142
f 155/360/143 144/361/143 131/352/143 130/351/143
f 150/362/144 152/363/144 128/364/144
f 154/350/145 141/349/145 139/365/145 138/366/145
f 153/359/146 147/358/146 135/367/146 134/368/146
f 152/363/147 154/355/147 138/369/147
f 148/330/148 153/332/148 134/370/148
f 142/340/6 151/339/6 136/371/6 137/372/6
f 144/361/149 155/360/149 133/373/149 132/374/149
f 151/333/150 150/362/150 136/375/150
f 149/344/151 145/343/151 132/374/151 133/373/151
f 155/356/152 149/329/152 133/376/152
f 150/354/10 143/353/10 137/372/10 136/371/10
f 146/348/153 148/347/153 134/368/153 135/367/153
f 140/336/154 152/335/154 138/366/154 139/365/154
f 123/377/42 148/330/42 149/329/42
f 123/378/42 150/362/42 151/333/42
f 123/379/42 152/363/42 150/362/42
f 123/380/42 153/332/42 148/330/42
f 123/381/42 151/333/42 153/332/42
f 123/382/42 154/355/42 152/363/42
f 123/383/42 155/356/42 154/355/42
f 123/384/42 149/329/42 155/356/42
