# Blender v3.4.1 OBJ File: 'Adventurers_2.0_Accessories_Export.blend'
# www.blender.org
mtllib turret_base_turret_footB.mtl
o turret_footB
v 0.180873 0.072760 -0.257026
v 0.153672 0.092400 -0.251022
v -0.180965 0.072760 -0.257026
v -0.153764 0.092400 -0.251022
v 0.180873 0.045788 -0.218506
v 0.153672 0.058147 -0.202105
v -0.180965 0.045788 -0.218506
v -0.153764 0.058148 -0.202105
v 0.180873 0.001325 -0.203197
v 0.153672 0.001684 -0.182663
v -0.180965 0.001326 -0.203197
v -0.153764 0.001684 -0.182663
v 0.180873 -0.043644 -0.216945
v 0.153672 -0.055424 -0.200122
v -0.180965 -0.043644 -0.216945
v -0.153764 -0.055424 -0.200122
v 0.180873 -0.071944 -0.254501
v 0.153671 -0.091362 -0.247815
v -0.180965 -0.071944 -0.254501
v -0.153764 -0.091362 -0.247814
v 0.180873 -0.072765 -0.301518
v 0.153671 -0.092405 -0.307522
v -0.180965 -0.072765 -0.301518
v -0.153764 -0.092404 -0.307522
v 0.180873 -0.045793 -0.340038
v 0.153671 -0.058152 -0.356440
v -0.180965 -0.045792 -0.340038
v -0.153764 -0.058152 -0.356440
v 0.180873 -0.001330 -0.355348
v 0.153672 -0.001689 -0.375882
v -0.180965 -0.001330 -0.355348
v -0.153764 -0.001688 -0.375882
v 0.180873 0.043639 -0.341599
v 0.153672 0.055419 -0.358422
v -0.180965 0.043640 -0.341599
v -0.153764 0.055419 -0.358422
v 0.180873 0.071939 -0.304044
v 0.153672 0.091358 -0.310730
v -0.180965 0.071940 -0.304044
v -0.153764 0.091358 -0.310730
v -0.180965 -0.000002 -0.279272
v 0.180873 -0.000002 -0.279272
v -0.065352 -0.346751 -0.529139
v -0.045431 -0.341161 -0.551016
v -0.039724 -0.363940 -0.537230
v -0.065056 -0.351516 -0.473594
v -0.039192 -0.365962 -0.477552
v -0.044858 -0.352564 -0.452394
v 0.065351 -0.346751 -0.529139
v 0.039724 -0.363940 -0.537231
v 0.045430 -0.341161 -0.551016
v 0.065055 -0.351516 -0.473595
v 0.044858 -0.352564 -0.452395
v 0.039192 -0.365962 -0.477552
v 0.160093 -0.150740 -0.421873
v 0.139436 -0.137190 -0.438146
v 0.159711 -0.185944 -0.371009
v 0.138863 -0.195672 -0.353107
v -0.159712 -0.185944 -0.371009
v -0.138863 -0.195672 -0.353107
v -0.160094 -0.150740 -0.421873
v -0.139437 -0.137190 -0.438146
v 0.210465 -0.070895 -0.384974
v 0.167655 -0.043166 -0.417861
v 0.167138 -0.144965 -0.272219
v 0.210320 -0.123758 -0.309377
v -0.167655 -0.043166 -0.417861
v -0.210466 -0.070895 -0.384974
v -0.210320 -0.123758 -0.309376
v -0.167138 -0.144965 -0.272219
v 0.200222 -0.130522 -0.427072
v 0.156940 -0.101570 -0.459705
v 0.199753 -0.183979 -0.350040
v 0.156199 -0.203670 -0.312143
v -0.200222 -0.130522 -0.427072
v -0.156940 -0.101570 -0.459705
v -0.199754 -0.183979 -0.350040
v -0.156199 -0.203669 -0.312142
vt 0.141911 0.386678
vt 0.218425 0.386678
vt 0.218425 0.391832
vt 0.141911 0.391832
vt 0.141911 0.373182
vt 0.218425 0.373182
vt 0.218425 0.356501
vt 0.141911 0.356501
vt 0.218425 0.343006
vt 0.141911 0.343006
vt 0.218425 0.337851
vt 0.141911 0.337851
vt 0.141911 0.343006
vt 0.218425 0.343006
vt 0.218425 0.356501
vt 0.141911 0.356501
vt 0.218425 0.373182
vt 0.141911 0.373182
vt 0.141911 0.386678
vt 0.218425 0.386678
vt 0.141911 0.415623
vt 0.141911 0.410468
vt 0.138908 0.405827
vt 0.138908 0.409887
vt 0.218425 0.410468
vt 0.218425 0.415623
vt 0.221424 0.409887
vt 0.221424 0.405827
vt 0.141911 0.396973
vt 0.138908 0.395201
vt 0.218425 0.396973
vt 0.221424 0.395201
vt 0.141911 0.380292
vt 0.138908 0.382066
vt 0.218425 0.380292
vt 0.221424 0.382066
vt 0.141911 0.366797
vt 0.138908 0.371438
vt 0.218425 0.366797
vt 0.221424 0.371437
vt 0.141911 0.361642
vt 0.138908 0.367378
vt 0.218425 0.361642
vt 0.221424 0.367377
vt 0.141911 0.366797
vt 0.138908 0.371438
vt 0.218425 0.366797
vt 0.221424 0.371437
vt 0.141911 0.380292
vt 0.138908 0.382066
vt 0.218425 0.380292
vt 0.221424 0.382066
vt 0.141911 0.396973
vt 0.138908 0.395201
vt 0.218425 0.396973
vt 0.221424 0.395201
vt 0.141911 0.410468
vt 0.138908 0.405827
vt 0.218425 0.410468
vt 0.221424 0.405827
vt 0.221424 0.382036
vt 0.221424 0.386096
vt 0.221424 0.364842
vt 0.221424 0.382036
vt 0.221424 0.371410
vt 0.221424 0.358275
vt 0.221424 0.347646
vt 0.221424 0.343586
vt 0.221424 0.347646
vt 0.221424 0.358275
vt 0.221424 0.371410
vt 0.138908 0.386096
vt 0.138908 0.382036
vt 0.138908 0.364842
vt 0.138908 0.371410
vt 0.138908 0.358275
vt 0.138908 0.347647
vt 0.138908 0.343587
vt 0.138908 0.347647
vt 0.138908 0.358275
vt 0.138908 0.371410
vt 0.138908 0.382036
vt 0.422067 0.533047
vt 0.438260 0.533047
vt 0.438365 0.522802
vt 0.421957 0.522802
vt 0.397173 0.598647
vt 0.416722 0.537482
vt 0.416663 0.528690
vt 0.397091 0.598540
vt 0.458847 0.589665
vt 0.439431 0.531333
vt 0.420896 0.531333
vt 0.401480 0.589665
vt 0.439545 0.516480
vt 0.458966 0.589391
vt 0.401357 0.589391
vt 0.420778 0.516480
vt 0.463231 0.598540
vt 0.443664 0.528690
vt 0.443600 0.537482
vt 0.463154 0.598647
vt 0.443664 0.552481
vt 0.439545 0.549975
vt 0.438365 0.546593
vt 0.148335 0.408030
vt 0.148979 0.401443
vt 0.144481 0.401188
vt 0.443600 0.561273
vt 0.438260 0.556838
vt 0.439431 0.564828
vt 0.211983 0.408033
vt 0.211389 0.401443
vt 0.215846 0.401190
vt 0.416663 0.552481
vt 0.421957 0.546593
vt 0.420778 0.549975
vt 0.211988 0.408030
vt 0.215842 0.401188
vt 0.211339 0.401443
vt 0.416722 0.561273
vt 0.420896 0.564828
vt 0.422067 0.556838
vt 0.144481 0.401190
vt 0.148335 0.408033
vt 0.213704 0.378327
vt 0.209366 0.379056
vt 0.148929 0.401443
vt 0.401480 0.623160
vt 0.397173 0.622438
vt 0.458966 0.622886
vt 0.463231 0.622331
vt 0.401357 0.622886
vt 0.397091 0.622331
vt 0.150855 0.378787
vt 0.146558 0.378224
vt 0.209467 0.378787
vt 0.213765 0.378224
vt 0.458847 0.623160
vt 0.463154 0.622438
vt 0.146558 0.354433
vt 0.144481 0.377399
vt 0.144481 0.377398
vt 0.146622 0.354536
vt 0.150959 0.345561
vt 0.148979 0.367948
vt 0.211339 0.367948
vt 0.209366 0.345561
vt 0.147091 0.372331
vt 0.151357 0.372886
vt 0.213704 0.354536
vt 0.215842 0.377398
vt 0.215846 0.377399
vt 0.213765 0.354433
vt 0.150959 0.379056
vt 0.146622 0.378327
vt 0.209467 0.345292
vt 0.211389 0.367948
vt 0.148929 0.367948
vt 0.150855 0.345292
vt 0.151480 0.373160
vt 0.147173 0.372438
vt 0.208966 0.372886
vt 0.213231 0.372331
vt 0.213154 0.372438
vt 0.208847 0.373160
vt 0.151357 0.339391
vt 0.208966 0.339391
vt 0.213231 0.348540
vt 0.213154 0.348647
vt 0.147173 0.348647
vt 0.147091 0.348540
vt 0.208847 0.339665
vt 0.151480 0.339665
vn 0.0000 0.9455 -0.3256
vn 0.0000 0.9563 0.2924
vn 0.0000 0.0175 0.9998
vn -0.0000 -0.5736 0.8192
vn -0.0000 -0.9455 0.3256
vn -0.0000 -0.9998 0.0175
vn -0.0000 -0.3256 -0.9455
vn -0.0000 -0.0175 -0.9998
vn 0.0000 0.5736 -0.8192
vn 0.0000 0.6018 0.7986
vn 0.6025 0.7632 0.2333
vn 0.6025 0.4803 0.6374
vn -0.6025 0.4803 0.6374
vn -0.6025 0.7632 0.2333
vn -0.6026 0.7632 0.2333
vn 0.6025 0.0139 0.7980
vn -0.6025 0.0139 0.7980
vn 0.6025 -0.4578 0.6537
vn 0.6025 -0.4578 0.6538
vn -0.6025 -0.4578 0.6537
vn 0.6025 -0.7546 0.2598
vn -0.6026 -0.7546 0.2598
vn 0.6025 -0.7632 -0.2333
vn -0.6026 -0.7632 -0.2333
vn 0.6025 -0.4803 -0.6374
vn -0.6026 -0.4803 -0.6374
vn 0.6026 -0.0139 -0.7980
vn -0.6026 -0.0139 -0.7980
vn 0.6026 0.4578 -0.6537
vn -0.6025 0.4578 -0.6537
vn 0.6026 0.7546 -0.2598
vn -0.6025 0.7546 -0.2598
vn -1.0000 0.0000 0.0000
vn 1.0000 -0.0000 -0.0000
vn 0.2323 -0.9544 0.1875
vn -0.2323 -0.9544 0.1875
vn -0.2627 -0.8437 -0.4682
vn 0.2627 -0.8437 -0.4682
vn 0.8304 -0.5407 0.1345
vn 0.7067 -0.6955 0.1302
vn 0.7715 -0.4554 -0.4444
vn 0.8706 -0.1831 -0.4567
vn -0.4082 -0.6453 0.6457
vn -0.2490 -0.7477 0.6156
vn 0.2490 -0.7477 0.6156
vn 0.4082 -0.6453 0.6457
vn -0.0000 0.4842 -0.8750
vn -0.8706 -0.1831 -0.4567
vn -0.7715 -0.4554 -0.4444
vn -0.7067 -0.6955 0.1302
vn -0.8304 -0.5407 0.1345
vn -0.4345 -0.3765 -0.8182
vn 0.2525 0.6579 0.7095
vn 0.1560 0.5780 0.8010
vn 0.3945 0.6760 0.6225
vn -0.2526 0.8923 0.3741
vn -0.1575 0.9506 0.2676
vn -0.3958 0.8155 0.4222
vn 0.4345 -0.3765 -0.8182
vn -0.2529 0.6578 0.7095
vn -0.3949 0.6756 0.6225
vn -0.1560 0.5778 0.8011
vn 0.3953 0.8156 0.4226
vn 0.2522 0.8924 0.3742
vn -0.6914 -0.4868 0.5338
vn -0.3527 -0.5686 0.7432
vn -0.3985 -0.5635 0.7237
vn 0.1576 0.9505 0.2678
vn -0.6991 0.0622 -0.7124
vn 0.6991 0.0622 -0.7124
vn 0.3575 0.5000 -0.7888
vn 0.4028 0.4834 -0.7772
vn 0.6993 0.3277 -0.6353
vn -0.4028 0.4834 -0.7772
vn -0.3575 0.5000 -0.7888
vn -0.6993 0.3277 -0.6353
vn 0.9899 -0.1179 -0.0782
vn 0.3527 -0.5686 0.7432
vn 0.3985 -0.5635 0.7237
vn 0.2679 -0.6933 -0.6690
vn 0.1032 -0.5564 -0.8245
vn 0.1058 -0.5573 -0.8235
vn 0.2679 -0.6932 -0.6691
vn -0.9899 -0.1179 -0.0782
vn 0.6914 -0.4868 0.5338
vn 0.0968 -0.9677 -0.2328
vn 0.2616 -0.8735 -0.4105
vn 0.2620 -0.8730 -0.4113
vn 0.0995 -0.9672 -0.2339
vn -0.1032 -0.5564 -0.8245
vn -0.2679 -0.6933 -0.6690
vn -0.2679 -0.6932 -0.6691
vn -0.1058 -0.5573 -0.8235
vn -0.2616 -0.8735 -0.4105
vn -0.0968 -0.9677 -0.2328
vn -0.0995 -0.9672 -0.2339
vn -0.2620 -0.8730 -0.4113
usemtl engineer
s 1
f 38/1/1 40/2/1 4/3/2 2/4/2
f 10/5/3 12/6/3 16/7/4 14/8/4
f 14/8/4 16/7/4 20/9/5 18/10/5
f 18/10/5 20/9/5 24/11/6 22/12/6
f 26/13/7 28/14/7 32/15/8 30/16/8
f 30/16/8 32/15/8 36/17/9 34/18/9
f 34/18/9 36/17/9 40/2/1 38/1/1
f 6/19/10 8/20/10 12/6/3 10/5/3
f 2/4/2 4/3/2 8/20/10 6/19/10
f 2/21/11 6/22/12 5/23/12 1/24/11
f 8/25/13 4/26/14 3/27/15 7/28/13
f 6/22/12 10/29/16 9/30/16 5/23/12
f 12/31/17 8/25/13 7/28/13 11/32/17
f 10/29/16 14/33/18 13/34/19 9/30/16
f 16/35/20 12/31/17 11/32/17 15/36/20
f 14/33/18 18/37/21 17/38/21 13/34/19
f 20/39/22 16/35/20 15/36/20 19/40/22
f 18/37/21 22/41/23 21/42/23 17/38/21
f 24/43/24 20/39/22 19/40/22 23/44/24
f 22/41/23 26/45/25 25/46/25 21/42/23
f 28/47/26 24/43/24 23/44/24 27/48/26
f 26/45/25 30/49/27 29/50/27 25/46/25
f 32/51/28 28/47/26 27/48/26 31/52/28
f 30/49/27 34/53/29 33/54/29 29/50/27
f 36/55/30 32/51/28 31/52/28 35/56/30
f 34/53/29 38/57/31 37/58/31 33/54/29
f 40/59/32 36/55/30 35/56/30 39/60/32
f 38/57/31 2/21/11 1/24/11 37/58/31
f 4/26/14 40/59/32 39/60/32 3/27/15
f 7/61/33 3/62/33 41/63/33
f 3/62/33 39/64/33 41/63/33
f 39/64/33 35/65/33 41/63/33
f 35/65/33 31/66/33 41/63/33
f 31/66/33 27/67/33 41/63/33
f 27/67/33 23/68/33 41/63/33
f 23/68/33 19/69/33 41/63/33
f 19/69/33 15/70/33 41/63/33
f 15/70/33 11/71/33 41/63/33
f 11/71/33 7/61/33 41/63/33
f 1/72/34 5/73/34 42/74/34
f 5/73/34 9/75/34 42/74/34
f 9/75/34 13/76/34 42/74/34
f 13/76/34 17/77/34 42/74/34
f 17/77/34 21/78/34 42/74/34
f 21/78/34 25/79/34 42/74/34
f 25/79/34 29/80/34 42/74/34
f 29/80/34 33/81/34 42/74/34
f 33/81/34 37/82/34 42/74/34
f 37/82/34 1/72/34 42/74/34
f 54/83/35 47/84/36 45/85/37 50/86/38
f 57/87/39 52/88/40 49/89/41 55/90/42
f 60/91/43 48/92/44 53/93/45 58/94/46
f 44/95/47 62/96/47 56/97/47 51/98/47
f 61/99/48 43/100/49 46/101/50 59/102/51
f 43/103/49 44/104/52 45/105/37
f 22/106/53 65/107/54 66/108/55
f 46/109/50 47/110/36 48/111/44
f 28/112/56 67/113/57 68/114/58
f 49/115/41 50/116/38 51/117/59
f 24/118/60 69/119/61 70/120/62
f 52/121/40 53/122/45 54/123/35
f 22/106/53 66/108/55 63/124/63 26/125/64
f 69/119/65 77/126/65 78/127/66 70/120/67
f 24/118/60 70/120/62 65/107/54 22/106/53
f 45/105/37 47/110/36 46/109/50 43/103/49
f 28/112/56 68/114/58 69/119/61 24/118/60
f 54/123/35 50/116/38 49/115/41 52/121/40
f 26/125/64 64/128/68 67/113/57 28/112/56
f 47/110/36 54/123/35 53/122/45 48/111/44
f 58/129/46 53/122/45 52/121/40 57/130/39
f 50/116/38 45/105/37 44/104/52 51/117/59
f 62/131/69 44/104/52 43/103/49 61/132/48
f 51/117/59 56/133/70 55/134/42 49/115/41
f 72/135/71 64/128/72 63/124/73 71/136/73
f 67/113/74 76/137/75 75/138/76 68/114/76
f 48/111/44 60/139/43 59/140/51 46/109/50
f 71/141/77 63/142/77 66/143/77 73/144/77
f 74/145/78 65/146/79 70/147/67 78/148/66
f 55/149/80 56/150/81 72/135/82 71/136/83
f 77/151/84 69/152/84 68/153/84 75/154/84
f 65/107/79 74/155/78 73/156/85 66/108/85
f 76/157/75 67/158/74 64/159/72 72/160/71
f 26/125/64 63/124/63 64/128/68
f 58/161/86 57/162/87 73/156/88 74/155/89
f 62/163/90 61/164/91 75/138/92 76/137/93
f 59/165/94 60/166/95 78/127/96 77/126/97
f 56/167/81 62/168/90 76/157/93 72/160/82
f 61/169/91 59/170/94 77/151/97 75/154/92
f 57/171/87 55/172/80 71/141/83 73/144/88
f 60/173/95 58/174/86 74/145/89 78/148/96
